solid OpenSCAD_Model
  facet normal 0.994522 -0 0.104531
    outer loop
      vertex 4.43443 -19.71 0.942567
      vertex 4.5335 0.1 -2.22045e-17
      vertex 4.43443 0.1 0.942567
    endloop
  endfacet
  facet normal 0.994522 2.32105e-17 0.104531
    outer loop
      vertex 4.5335 0.1 -2.22045e-17
      vertex 4.43443 -19.71 0.942567
      vertex 4.5335 -19.71 4.3765e-15
    endloop
  endfacet
  facet normal -0.994522 2.32105e-17 0.104531
    outer loop
      vertex -4.5335 -19.71 4.3765e-15
      vertex -4.43443 0.1 0.942567
      vertex -4.5335 0.1 -2.22045e-17
    endloop
  endfacet
  facet normal -0.994522 0 0.104531
    outer loop
      vertex -4.43443 0.1 0.942567
      vertex -4.5335 -19.71 4.3765e-15
      vertex -4.43443 -19.71 0.942567
    endloop
  endfacet
  facet normal 0.743146 -0 0.669129
    outer loop
      vertex 3.06551 -19.71 3.3335
      vertex 3.66768 0.1 2.66472
      vertex 3.06551 0.1 3.3335
    endloop
  endfacet
  facet normal 0.743146 0 0.669129
    outer loop
      vertex 3.66768 0.1 2.66472
      vertex 3.06551 -19.71 3.3335
      vertex 3.66768 -19.71 2.66472
    endloop
  endfacet
  facet normal 0.866024 -0 0.500002
    outer loop
      vertex 3.66768 -19.71 2.66472
      vertex 4.14156 0.1 1.84394
      vertex 3.66768 0.1 2.66472
    endloop
  endfacet
  facet normal 0.866024 0 0.500002
    outer loop
      vertex 4.14156 0.1 1.84394
      vertex 3.66768 -19.71 2.66472
      vertex 4.14156 -19.71 1.84394
    endloop
  endfacet
  facet normal 0.951058 -0 0.309013
    outer loop
      vertex 4.14156 -19.71 1.84394
      vertex 4.43443 0.1 0.942567
      vertex 4.14156 0.1 1.84394
    endloop
  endfacet
  facet normal 0.951058 0 0.309013
    outer loop
      vertex 4.43443 0.1 0.942567
      vertex 4.14156 -19.71 1.84394
      vertex 4.43443 -19.71 0.942567
    endloop
  endfacet
  facet normal -0.866024 0 0.500002
    outer loop
      vertex -4.14156 -19.71 1.84394
      vertex -3.66768 0.1 2.66472
      vertex -4.14156 0.1 1.84394
    endloop
  endfacet
  facet normal -0.866024 0 0.500002
    outer loop
      vertex -3.66768 0.1 2.66472
      vertex -4.14156 -19.71 1.84394
      vertex -3.66768 -19.71 2.66472
    endloop
  endfacet
  facet normal -0.743146 0 0.669129
    outer loop
      vertex -3.66768 -19.71 2.66472
      vertex -3.06551 0.1 3.3335
      vertex -3.66768 0.1 2.66472
    endloop
  endfacet
  facet normal -0.743146 0 0.669129
    outer loop
      vertex -3.06551 0.1 3.3335
      vertex -3.66768 -19.71 2.66472
      vertex -3.06551 -19.71 3.3335
    endloop
  endfacet
  facet normal -0.951058 0 0.309013
    outer loop
      vertex -4.43443 -19.71 0.942567
      vertex -4.14156 0.1 1.84394
      vertex -4.43443 0.1 0.942567
    endloop
  endfacet
  facet normal -0.951058 0 0.309013
    outer loop
      vertex -4.14156 0.1 1.84394
      vertex -4.43443 -19.71 0.942567
      vertex -4.14156 -19.71 1.84394
    endloop
  endfacet
  facet normal 0 -1 0
    outer loop
      vertex -3.66768 -19.71 2.66472
      vertex 3.06551 -19.71 3.3335
      vertex -3.06551 -19.71 3.3335
    endloop
  endfacet
  facet normal 0 -1 0
    outer loop
      vertex -3.66768 -19.71 2.66472
      vertex 3.66768 -19.71 2.66472
      vertex 3.06551 -19.71 3.3335
    endloop
  endfacet
  facet normal 0 -1 0
    outer loop
      vertex -4.14156 -19.71 1.84394
      vertex 3.66768 -19.71 2.66472
      vertex -3.66768 -19.71 2.66472
    endloop
  endfacet
  facet normal 0 -1 0
    outer loop
      vertex -4.14156 -19.71 1.84394
      vertex 4.14156 -19.71 1.84394
      vertex 3.66768 -19.71 2.66472
    endloop
  endfacet
  facet normal 0 -1 0
    outer loop
      vertex -4.43443 -19.71 0.942567
      vertex 4.14156 -19.71 1.84394
      vertex -4.14156 -19.71 1.84394
    endloop
  endfacet
  facet normal 0 -1 0
    outer loop
      vertex -4.43443 -19.71 0.942567
      vertex 4.43443 -19.71 0.942567
      vertex 4.14156 -19.71 1.84394
    endloop
  endfacet
  facet normal 0 -1 0
    outer loop
      vertex -4.5335 -19.71 4.3765e-15
      vertex 4.43443 -19.71 0.942567
      vertex -4.43443 -19.71 0.942567
    endloop
  endfacet
  facet normal 0 -1 0
    outer loop
      vertex -4.5335 -19.71 4.3765e-15
      vertex 4.5335 -19.71 4.3765e-15
      vertex 4.43443 -19.71 0.942567
    endloop
  endfacet
  facet normal 0 -1 0
    outer loop
      vertex -4.43443 -19.71 -0.942567
      vertex 4.5335 -19.71 4.3765e-15
      vertex -4.5335 -19.71 4.3765e-15
    endloop
  endfacet
  facet normal 0 -1 0
    outer loop
      vertex -4.43443 -19.71 -0.942567
      vertex 4.43443 -19.71 -0.942567
      vertex 4.5335 -19.71 4.3765e-15
    endloop
  endfacet
  facet normal 0 -1 0
    outer loop
      vertex -4.14156 -19.71 -1.84394
      vertex 4.43443 -19.71 -0.942567
      vertex -4.43443 -19.71 -0.942567
    endloop
  endfacet
  facet normal 0 -1 0
    outer loop
      vertex -4.14156 -19.71 -1.84394
      vertex 4.14156 -19.71 -1.84394
      vertex 4.43443 -19.71 -0.942567
    endloop
  endfacet
  facet normal 0 -1 0
    outer loop
      vertex -3.66768 -19.71 -2.66472
      vertex 4.14156 -19.71 -1.84394
      vertex -4.14156 -19.71 -1.84394
    endloop
  endfacet
  facet normal 0 -1 0
    outer loop
      vertex -3.66768 -19.71 -2.66472
      vertex 3.66768 -19.71 -2.66472
      vertex 4.14156 -19.71 -1.84394
    endloop
  endfacet
  facet normal 0 -1 0
    outer loop
      vertex -3.06551 -19.71 -3.3335
      vertex 3.66768 -19.71 -2.66472
      vertex -3.66768 -19.71 -2.66472
    endloop
  endfacet
  facet normal 0 -1 0
    outer loop
      vertex 3.66768 -19.71 -2.66472
      vertex -3.06551 -19.71 -3.3335
      vertex 3.06551 -19.71 -3.3335
    endloop
  endfacet
  facet normal 0.994522 -2.32105e-17 -0.104531
    outer loop
      vertex 4.5335 -19.71 4.3765e-15
      vertex 4.43443 0.1 -0.942567
      vertex 4.5335 0.1 -2.22045e-17
    endloop
  endfacet
  facet normal 0.994522 0 -0.104531
    outer loop
      vertex 4.43443 0.1 -0.942567
      vertex 4.5335 -19.71 4.3765e-15
      vertex 4.43443 -19.71 -0.942567
    endloop
  endfacet
  facet normal 0 1 0
    outer loop
      vertex 3.66768 0.1 2.66472
      vertex -3.06551 0.1 3.3335
      vertex 3.06551 0.1 3.3335
    endloop
  endfacet
  facet normal 0 1 0
    outer loop
      vertex 3.66768 0.1 2.66472
      vertex -3.66768 0.1 2.66472
      vertex -3.06551 0.1 3.3335
    endloop
  endfacet
  facet normal 0 1 0
    outer loop
      vertex 4.14156 0.1 1.84394
      vertex -3.66768 0.1 2.66472
      vertex 3.66768 0.1 2.66472
    endloop
  endfacet
  facet normal 0 1 0
    outer loop
      vertex 4.14156 0.1 1.84394
      vertex -4.14156 0.1 1.84394
      vertex -3.66768 0.1 2.66472
    endloop
  endfacet
  facet normal 0 1 0
    outer loop
      vertex 4.43443 0.1 0.942567
      vertex -4.14156 0.1 1.84394
      vertex 4.14156 0.1 1.84394
    endloop
  endfacet
  facet normal 0 1 0
    outer loop
      vertex 4.43443 0.1 0.942567
      vertex -4.43443 0.1 0.942567
      vertex -4.14156 0.1 1.84394
    endloop
  endfacet
  facet normal 0 1 0
    outer loop
      vertex 4.5335 0.1 -2.22045e-17
      vertex -4.43443 0.1 0.942567
      vertex 4.43443 0.1 0.942567
    endloop
  endfacet
  facet normal 0 1 0
    outer loop
      vertex 4.5335 0.1 -2.22045e-17
      vertex -4.5335 0.1 -2.22045e-17
      vertex -4.43443 0.1 0.942567
    endloop
  endfacet
  facet normal 0 1 -0
    outer loop
      vertex 4.43443 0.1 -0.942567
      vertex -4.5335 0.1 -2.22045e-17
      vertex 4.5335 0.1 -2.22045e-17
    endloop
  endfacet
  facet normal 0 1 0
    outer loop
      vertex 4.43443 0.1 -0.942567
      vertex -4.43443 0.1 -0.942567
      vertex -4.5335 0.1 -2.22045e-17
    endloop
  endfacet
  facet normal 0 1 -0
    outer loop
      vertex 4.14156 0.1 -1.84394
      vertex -4.43443 0.1 -0.942567
      vertex 4.43443 0.1 -0.942567
    endloop
  endfacet
  facet normal 0 1 0
    outer loop
      vertex 4.14156 0.1 -1.84394
      vertex -4.14156 0.1 -1.84394
      vertex -4.43443 0.1 -0.942567
    endloop
  endfacet
  facet normal 0 1 -0
    outer loop
      vertex 3.66768 0.1 -2.66472
      vertex -4.14156 0.1 -1.84394
      vertex 4.14156 0.1 -1.84394
    endloop
  endfacet
  facet normal 0 1 0
    outer loop
      vertex 3.66768 0.1 -2.66472
      vertex -3.66768 0.1 -2.66472
      vertex -4.14156 0.1 -1.84394
    endloop
  endfacet
  facet normal 0 1 -0
    outer loop
      vertex 3.06551 0.1 -3.3335
      vertex -3.66768 0.1 -2.66472
      vertex 3.66768 0.1 -2.66472
    endloop
  endfacet
  facet normal 0 1 0
    outer loop
      vertex -3.66768 0.1 -2.66472
      vertex 3.06551 0.1 -3.3335
      vertex -3.06551 0.1 -3.3335
    endloop
  endfacet
  facet normal 0.743146 0 -0.669129
    outer loop
      vertex 3.66768 -19.71 -2.66472
      vertex 3.06551 0.1 -3.3335
      vertex 3.66768 0.1 -2.66472
    endloop
  endfacet
  facet normal 0.743146 0 -0.669129
    outer loop
      vertex 3.06551 0.1 -3.3335
      vertex 3.66768 -19.71 -2.66472
      vertex 3.06551 -19.71 -3.3335
    endloop
  endfacet
  facet normal 0.951058 0 -0.309013
    outer loop
      vertex 4.43443 -19.71 -0.942567
      vertex 4.14156 0.1 -1.84394
      vertex 4.43443 0.1 -0.942567
    endloop
  endfacet
  facet normal 0.951058 0 -0.309013
    outer loop
      vertex 4.14156 0.1 -1.84394
      vertex 4.43443 -19.71 -0.942567
      vertex 4.14156 -19.71 -1.84394
    endloop
  endfacet
  facet normal 0.866024 0 -0.500002
    outer loop
      vertex 4.14156 -19.71 -1.84394
      vertex 3.66768 0.1 -2.66472
      vertex 4.14156 0.1 -1.84394
    endloop
  endfacet
  facet normal 0.866024 0 -0.500002
    outer loop
      vertex 3.66768 0.1 -2.66472
      vertex 4.14156 -19.71 -1.84394
      vertex 3.66768 -19.71 -2.66472
    endloop
  endfacet
  facet normal -0.866024 0 -0.500002
    outer loop
      vertex -3.66768 -19.71 -2.66472
      vertex -4.14156 0.1 -1.84394
      vertex -3.66768 0.1 -2.66472
    endloop
  endfacet
  facet normal -0.866024 -0 -0.500002
    outer loop
      vertex -4.14156 0.1 -1.84394
      vertex -3.66768 -19.71 -2.66472
      vertex -4.14156 -19.71 -1.84394
    endloop
  endfacet
  facet normal -0.743146 0 -0.669129
    outer loop
      vertex -3.06551 -19.71 -3.3335
      vertex -3.66768 0.1 -2.66472
      vertex -3.06551 0.1 -3.3335
    endloop
  endfacet
  facet normal -0.743146 -0 -0.669129
    outer loop
      vertex -3.66768 0.1 -2.66472
      vertex -3.06551 -19.71 -3.3335
      vertex -3.66768 -19.71 -2.66472
    endloop
  endfacet
  facet normal -0.951058 0 -0.309013
    outer loop
      vertex -4.14156 -19.71 -1.84394
      vertex -4.43443 0.1 -0.942567
      vertex -4.14156 0.1 -1.84394
    endloop
  endfacet
  facet normal -0.951058 -0 -0.309013
    outer loop
      vertex -4.43443 0.1 -0.942567
      vertex -4.14156 -19.71 -1.84394
      vertex -4.43443 -19.71 -0.942567
    endloop
  endfacet
  facet normal -0.994522 0 -0.104531
    outer loop
      vertex -4.43443 -19.71 -0.942567
      vertex -4.5335 0.1 -2.22045e-17
      vertex -4.43443 0.1 -0.942567
    endloop
  endfacet
  facet normal -0.994522 -2.32105e-17 -0.104531
    outer loop
      vertex -4.5335 0.1 -2.22045e-17
      vertex -4.43443 -19.71 -0.942567
      vertex -4.5335 -19.71 4.3765e-15
    endloop
  endfacet
  facet normal -0 0 1
    outer loop
      vertex -3.06551 0.1 3.3335
      vertex 3.06551 -19.71 3.3335
      vertex 3.06551 0.1 3.3335
    endloop
  endfacet
  facet normal 0 0 1
    outer loop
      vertex 3.06551 -19.71 3.3335
      vertex -3.06551 0.1 3.3335
      vertex -3.06551 -19.71 3.3335
    endloop
  endfacet
  facet normal 0 0 -1
    outer loop
      vertex -3.06551 -19.71 -3.3335
      vertex 3.06551 0.1 -3.3335
      vertex 3.06551 -19.71 -3.3335
    endloop
  endfacet
  facet normal -0 0 -1
    outer loop
      vertex 3.06551 0.1 -3.3335
      vertex -3.06551 -19.71 -3.3335
      vertex -3.06551 0.1 -3.3335
    endloop
  endfacet
endsolid OpenSCAD_Model
