solid OpenSCAD_Model
  facet normal 0.994522 -0 0.104525
    outer loop
      vertex 4.35276 -19.71 0.925206
      vertex 4.45 0.1 -2.22045e-17
      vertex 4.35276 0.1 0.925206
    endloop
  endfacet
  facet normal 0.994522 2.32093e-17 0.104525
    outer loop
      vertex 4.45 0.1 -2.22045e-17
      vertex 4.35276 -19.71 0.925206
      vertex 4.45 -19.71 4.3765e-15
    endloop
  endfacet
  facet normal -0.994522 2.32093e-17 0.104525
    outer loop
      vertex -4.45 -19.71 4.3765e-15
      vertex -4.35276 0.1 0.925206
      vertex -4.45 0.1 -2.22045e-17
    endloop
  endfacet
  facet normal -0.994522 0 0.104525
    outer loop
      vertex -4.35276 0.1 0.925206
      vertex -4.45 -19.71 4.3765e-15
      vertex -4.35276 -19.71 0.925206
    endloop
  endfacet
  facet normal 0.743145 -0 0.66913
    outer loop
      vertex 3.02895 -19.71 3.25
      vertex 3.60013 0.1 2.61564
      vertex 3.02895 0.1 3.25
    endloop
  endfacet
  facet normal 0.743145 0 0.66913
    outer loop
      vertex 3.60013 0.1 2.61564
      vertex 3.02895 -19.71 3.25
      vertex 3.60013 -19.71 2.61564
    endloop
  endfacet
  facet normal 0.951057 -0 0.309017
    outer loop
      vertex 4.06528 -19.71 1.80998
      vertex 4.35276 0.1 0.925206
      vertex 4.06528 0.1 1.80998
    endloop
  endfacet
  facet normal 0.951057 0 0.309017
    outer loop
      vertex 4.35276 0.1 0.925206
      vertex 4.06528 -19.71 1.80998
      vertex 4.35276 -19.71 0.925206
    endloop
  endfacet
  facet normal 0.866024 0 -0.500002
    outer loop
      vertex 4.06528 -19.71 -1.80998
      vertex 3.60013 0.1 -2.61564
      vertex 4.06528 0.1 -1.80998
    endloop
  endfacet
  facet normal 0.866024 0 -0.500002
    outer loop
      vertex 3.60013 0.1 -2.61564
      vertex 4.06528 -19.71 -1.80998
      vertex 3.60013 -19.71 -2.61564
    endloop
  endfacet
  facet normal 0.866024 -0 0.500002
    outer loop
      vertex 3.60013 -19.71 2.61564
      vertex 4.06528 0.1 1.80998
      vertex 3.60013 0.1 2.61564
    endloop
  endfacet
  facet normal 0.866024 0 0.500002
    outer loop
      vertex 4.06528 0.1 1.80998
      vertex 3.60013 -19.71 2.61564
      vertex 4.06528 -19.71 1.80998
    endloop
  endfacet
  facet normal -0.866024 0 0.500002
    outer loop
      vertex -4.06528 -19.71 1.80998
      vertex -3.60013 0.1 2.61564
      vertex -4.06528 0.1 1.80998
    endloop
  endfacet
  facet normal -0.866024 0 0.500002
    outer loop
      vertex -3.60013 0.1 2.61564
      vertex -4.06528 -19.71 1.80998
      vertex -3.60013 -19.71 2.61564
    endloop
  endfacet
  facet normal -0.743145 0 0.66913
    outer loop
      vertex -3.60013 -19.71 2.61564
      vertex -3.02895 0.1 3.25
      vertex -3.60013 0.1 2.61564
    endloop
  endfacet
  facet normal -0.743145 0 0.66913
    outer loop
      vertex -3.02895 0.1 3.25
      vertex -3.60013 -19.71 2.61564
      vertex -3.02895 -19.71 3.25
    endloop
  endfacet
  facet normal -0.951057 0 0.309017
    outer loop
      vertex -4.35276 -19.71 0.925206
      vertex -4.06528 0.1 1.80998
      vertex -4.35276 0.1 0.925206
    endloop
  endfacet
  facet normal -0.951057 0 0.309017
    outer loop
      vertex -4.06528 0.1 1.80998
      vertex -4.35276 -19.71 0.925206
      vertex -4.06528 -19.71 1.80998
    endloop
  endfacet
  facet normal 0 -1 0
    outer loop
      vertex -3.60013 -19.71 2.61564
      vertex 3.02895 -19.71 3.25
      vertex -3.02895 -19.71 3.25
    endloop
  endfacet
  facet normal 0 -1 0
    outer loop
      vertex -3.60013 -19.71 2.61564
      vertex 3.60013 -19.71 2.61564
      vertex 3.02895 -19.71 3.25
    endloop
  endfacet
  facet normal 0 -1 0
    outer loop
      vertex -4.06528 -19.71 1.80998
      vertex 3.60013 -19.71 2.61564
      vertex -3.60013 -19.71 2.61564
    endloop
  endfacet
  facet normal 0 -1 0
    outer loop
      vertex -4.06528 -19.71 1.80998
      vertex 4.06528 -19.71 1.80998
      vertex 3.60013 -19.71 2.61564
    endloop
  endfacet
  facet normal 0 -1 0
    outer loop
      vertex -4.35276 -19.71 0.925206
      vertex 4.06528 -19.71 1.80998
      vertex -4.06528 -19.71 1.80998
    endloop
  endfacet
  facet normal 0 -1 0
    outer loop
      vertex -4.35276 -19.71 0.925206
      vertex 4.35276 -19.71 0.925206
      vertex 4.06528 -19.71 1.80998
    endloop
  endfacet
  facet normal 0 -1 0
    outer loop
      vertex -4.45 -19.71 4.3765e-15
      vertex 4.35276 -19.71 0.925206
      vertex -4.35276 -19.71 0.925206
    endloop
  endfacet
  facet normal 0 -1 0
    outer loop
      vertex -4.45 -19.71 4.3765e-15
      vertex 4.45 -19.71 4.3765e-15
      vertex 4.35276 -19.71 0.925206
    endloop
  endfacet
  facet normal 0 -1 0
    outer loop
      vertex -4.35276 -19.71 -0.925206
      vertex 4.45 -19.71 4.3765e-15
      vertex -4.45 -19.71 4.3765e-15
    endloop
  endfacet
  facet normal 0 -1 0
    outer loop
      vertex -4.35276 -19.71 -0.925206
      vertex 4.35276 -19.71 -0.925206
      vertex 4.45 -19.71 4.3765e-15
    endloop
  endfacet
  facet normal 0 -1 0
    outer loop
      vertex -4.06528 -19.71 -1.80998
      vertex 4.35276 -19.71 -0.925206
      vertex -4.35276 -19.71 -0.925206
    endloop
  endfacet
  facet normal 0 -1 0
    outer loop
      vertex -4.06528 -19.71 -1.80998
      vertex 4.06528 -19.71 -1.80998
      vertex 4.35276 -19.71 -0.925206
    endloop
  endfacet
  facet normal 0 -1 0
    outer loop
      vertex -3.60013 -19.71 -2.61564
      vertex 4.06528 -19.71 -1.80998
      vertex -4.06528 -19.71 -1.80998
    endloop
  endfacet
  facet normal 0 -1 0
    outer loop
      vertex -3.60013 -19.71 -2.61564
      vertex 3.60013 -19.71 -2.61564
      vertex 4.06528 -19.71 -1.80998
    endloop
  endfacet
  facet normal 0 -1 0
    outer loop
      vertex -3.02895 -19.71 -3.25
      vertex 3.60013 -19.71 -2.61564
      vertex -3.60013 -19.71 -2.61564
    endloop
  endfacet
  facet normal 0 -1 0
    outer loop
      vertex 3.60013 -19.71 -2.61564
      vertex -3.02895 -19.71 -3.25
      vertex 3.02895 -19.71 -3.25
    endloop
  endfacet
  facet normal 0 1 0
    outer loop
      vertex 3.60013 0.1 2.61564
      vertex -3.02895 0.1 3.25
      vertex 3.02895 0.1 3.25
    endloop
  endfacet
  facet normal 0 1 0
    outer loop
      vertex 3.60013 0.1 2.61564
      vertex -3.60013 0.1 2.61564
      vertex -3.02895 0.1 3.25
    endloop
  endfacet
  facet normal 0 1 0
    outer loop
      vertex 4.06528 0.1 1.80998
      vertex -3.60013 0.1 2.61564
      vertex 3.60013 0.1 2.61564
    endloop
  endfacet
  facet normal 0 1 0
    outer loop
      vertex 4.06528 0.1 1.80998
      vertex -4.06528 0.1 1.80998
      vertex -3.60013 0.1 2.61564
    endloop
  endfacet
  facet normal 0 1 0
    outer loop
      vertex 4.35276 0.1 0.925206
      vertex -4.06528 0.1 1.80998
      vertex 4.06528 0.1 1.80998
    endloop
  endfacet
  facet normal 0 1 0
    outer loop
      vertex 4.35276 0.1 0.925206
      vertex -4.35276 0.1 0.925206
      vertex -4.06528 0.1 1.80998
    endloop
  endfacet
  facet normal 0 1 0
    outer loop
      vertex 4.45 0.1 -2.22045e-17
      vertex -4.35276 0.1 0.925206
      vertex 4.35276 0.1 0.925206
    endloop
  endfacet
  facet normal 0 1 0
    outer loop
      vertex 4.45 0.1 -2.22045e-17
      vertex -4.45 0.1 -2.22045e-17
      vertex -4.35276 0.1 0.925206
    endloop
  endfacet
  facet normal 0 1 -0
    outer loop
      vertex 4.35276 0.1 -0.925206
      vertex -4.45 0.1 -2.22045e-17
      vertex 4.45 0.1 -2.22045e-17
    endloop
  endfacet
  facet normal 0 1 0
    outer loop
      vertex 4.35276 0.1 -0.925206
      vertex -4.35276 0.1 -0.925206
      vertex -4.45 0.1 -2.22045e-17
    endloop
  endfacet
  facet normal 0 1 -0
    outer loop
      vertex 4.06528 0.1 -1.80998
      vertex -4.35276 0.1 -0.925206
      vertex 4.35276 0.1 -0.925206
    endloop
  endfacet
  facet normal 0 1 0
    outer loop
      vertex 4.06528 0.1 -1.80998
      vertex -4.06528 0.1 -1.80998
      vertex -4.35276 0.1 -0.925206
    endloop
  endfacet
  facet normal 0 1 -0
    outer loop
      vertex 3.60013 0.1 -2.61564
      vertex -4.06528 0.1 -1.80998
      vertex 4.06528 0.1 -1.80998
    endloop
  endfacet
  facet normal 0 1 0
    outer loop
      vertex 3.60013 0.1 -2.61564
      vertex -3.60013 0.1 -2.61564
      vertex -4.06528 0.1 -1.80998
    endloop
  endfacet
  facet normal 0 1 -0
    outer loop
      vertex 3.02895 0.1 -3.25
      vertex -3.60013 0.1 -2.61564
      vertex 3.60013 0.1 -2.61564
    endloop
  endfacet
  facet normal 0 1 0
    outer loop
      vertex -3.60013 0.1 -2.61564
      vertex 3.02895 0.1 -3.25
      vertex -3.02895 0.1 -3.25
    endloop
  endfacet
  facet normal 0.743145 0 -0.66913
    outer loop
      vertex 3.60013 -19.71 -2.61564
      vertex 3.02895 0.1 -3.25
      vertex 3.60013 0.1 -2.61564
    endloop
  endfacet
  facet normal 0.743145 0 -0.66913
    outer loop
      vertex 3.02895 0.1 -3.25
      vertex 3.60013 -19.71 -2.61564
      vertex 3.02895 -19.71 -3.25
    endloop
  endfacet
  facet normal 0.951057 0 -0.309017
    outer loop
      vertex 4.35276 -19.71 -0.925206
      vertex 4.06528 0.1 -1.80998
      vertex 4.35276 0.1 -0.925206
    endloop
  endfacet
  facet normal 0.951057 0 -0.309017
    outer loop
      vertex 4.06528 0.1 -1.80998
      vertex 4.35276 -19.71 -0.925206
      vertex 4.06528 -19.71 -1.80998
    endloop
  endfacet
  facet normal 0.994522 -2.32093e-17 -0.104525
    outer loop
      vertex 4.45 -19.71 4.3765e-15
      vertex 4.35276 0.1 -0.925206
      vertex 4.45 0.1 -2.22045e-17
    endloop
  endfacet
  facet normal 0.994522 0 -0.104525
    outer loop
      vertex 4.35276 0.1 -0.925206
      vertex 4.45 -19.71 4.3765e-15
      vertex 4.35276 -19.71 -0.925206
    endloop
  endfacet
  facet normal -0.866024 0 -0.500002
    outer loop
      vertex -3.60013 -19.71 -2.61564
      vertex -4.06528 0.1 -1.80998
      vertex -3.60013 0.1 -2.61564
    endloop
  endfacet
  facet normal -0.866024 -0 -0.500002
    outer loop
      vertex -4.06528 0.1 -1.80998
      vertex -3.60013 -19.71 -2.61564
      vertex -4.06528 -19.71 -1.80998
    endloop
  endfacet
  facet normal -0.743145 0 -0.66913
    outer loop
      vertex -3.02895 -19.71 -3.25
      vertex -3.60013 0.1 -2.61564
      vertex -3.02895 0.1 -3.25
    endloop
  endfacet
  facet normal -0.743145 -0 -0.66913
    outer loop
      vertex -3.60013 0.1 -2.61564
      vertex -3.02895 -19.71 -3.25
      vertex -3.60013 -19.71 -2.61564
    endloop
  endfacet
  facet normal -0.994522 0 -0.104525
    outer loop
      vertex -4.35276 -19.71 -0.925206
      vertex -4.45 0.1 -2.22045e-17
      vertex -4.35276 0.1 -0.925206
    endloop
  endfacet
  facet normal -0.994522 -2.32093e-17 -0.104525
    outer loop
      vertex -4.45 0.1 -2.22045e-17
      vertex -4.35276 -19.71 -0.925206
      vertex -4.45 -19.71 4.3765e-15
    endloop
  endfacet
  facet normal -0.951057 0 -0.309017
    outer loop
      vertex -4.06528 -19.71 -1.80998
      vertex -4.35276 0.1 -0.925206
      vertex -4.06528 0.1 -1.80998
    endloop
  endfacet
  facet normal -0.951057 -0 -0.309017
    outer loop
      vertex -4.35276 0.1 -0.925206
      vertex -4.06528 -19.71 -1.80998
      vertex -4.35276 -19.71 -0.925206
    endloop
  endfacet
  facet normal -0 0 1
    outer loop
      vertex -3.02895 0.1 3.25
      vertex 3.02895 -19.71 3.25
      vertex 3.02895 0.1 3.25
    endloop
  endfacet
  facet normal 0 0 1
    outer loop
      vertex 3.02895 -19.71 3.25
      vertex -3.02895 0.1 3.25
      vertex -3.02895 -19.71 3.25
    endloop
  endfacet
  facet normal 0 0 -1
    outer loop
      vertex -3.02895 -19.71 -3.25
      vertex 3.02895 0.1 -3.25
      vertex 3.02895 -19.71 -3.25
    endloop
  endfacet
  facet normal -0 0 -1
    outer loop
      vertex 3.02895 0.1 -3.25
      vertex -3.02895 -19.71 -3.25
      vertex -3.02895 0.1 -3.25
    endloop
  endfacet
endsolid OpenSCAD_Model
