solid OpenSCAD_Model
  facet normal 0 -0 1
    outer loop
      vertex 7 -7 7.5
      vertex 7 7 7.5
      vertex -7 -7 7.5
    endloop
  endfacet
  facet normal 0 0.707107 0.707107
    outer loop
      vertex -7 7.5 7
      vertex -7 7 7.5
      vertex 7 7 7.5
    endloop
  endfacet
  facet normal 0.57735 -0.57735 0.57735
    outer loop
      vertex 7 -7.5 7
      vertex 7.5 -7 7
      vertex 7 -7 7.5
    endloop
  endfacet
  facet normal 0 0 1
    outer loop
      vertex 7 7 7.5
      vertex -7 7 7.5
      vertex -7 -7 7.5
    endloop
  endfacet
  facet normal 0.57735 -0.57735 -0.57735
    outer loop
      vertex 7 -7.5 -7
      vertex 7 -7 -7.5
      vertex 7.5 -7 -7
    endloop
  endfacet
  facet normal -1 0 0
    outer loop
      vertex -7.5 -7 -7
      vertex -7.5 -7 7
      vertex -7.5 7 7
    endloop
  endfacet
  facet normal 1 0 -0
    outer loop
      vertex 7.5 7 -7
      vertex 7.5 7 7
      vertex 7.5 -7 7
    endloop
  endfacet
  facet normal -0.707107 0.707107 0
    outer loop
      vertex -7 7.5 7
      vertex -7 7.5 -7
      vertex -7.5 7 7
    endloop
  endfacet
  facet normal 0 0.707107 -0.707107
    outer loop
      vertex 7 7.5 -7
      vertex 7 7 -7.5
      vertex -7 7 -7.5
    endloop
  endfacet
  facet normal -0.707107 -0.707107 0
    outer loop
      vertex -7.5 -7 -7
      vertex -7 -7.5 -7
      vertex -7 -7.5 7
    endloop
  endfacet
  facet normal 0.57735 0.57735 -0.57735
    outer loop
      vertex 7.5 7 -7
      vertex 7 7 -7.5
      vertex 7 7.5 -7
    endloop
  endfacet
  facet normal 1 0 0
    outer loop
      vertex 7.5 7 -7
      vertex 7.5 -7 7
      vertex 7.5 -7 -7
    endloop
  endfacet
  facet normal 0.707107 -0.707107 0
    outer loop
      vertex 7 -7.5 -7
      vertex 7.5 -7 -7
      vertex 7 -7.5 7
    endloop
  endfacet
  facet normal 0 -0.707107 0.707107
    outer loop
      vertex -7 -7 7.5
      vertex 7 -7.5 7
      vertex 7 -7 7.5
    endloop
  endfacet
  facet normal -0.707107 0 0.707107
    outer loop
      vertex -7 7 7.5
      vertex -7.5 7 7
      vertex -7 -7 7.5
    endloop
  endfacet
  facet normal -0.57735 0.57735 0.57735
    outer loop
      vertex -7 7.5 7
      vertex -7.5 7 7
      vertex -7 7 7.5
    endloop
  endfacet
  facet normal 0 -1 0
    outer loop
      vertex -7 -7.5 7
      vertex -7 -7.5 -7
      vertex 7 -7.5 -7
    endloop
  endfacet
  facet normal -0.707107 -0 -0.707107
    outer loop
      vertex -7 7 -7.5
      vertex -7 -7 -7.5
      vertex -7.5 -7 -7
    endloop
  endfacet
  facet normal -0.707107 0 -0.707107
    outer loop
      vertex -7.5 -7 -7
      vertex -7.5 7 -7
      vertex -7 7 -7.5
    endloop
  endfacet
  facet normal 0.707107 0.707107 -0
    outer loop
      vertex 7 7.5 -7
      vertex 7 7.5 7
      vertex 7.5 7 -7
    endloop
  endfacet
  facet normal -0 -1 -0
    outer loop
      vertex 7 -7.5 7
      vertex -7 -7.5 7
      vertex 7 -7.5 -7
    endloop
  endfacet
  facet normal 0 -0.707107 0.707107
    outer loop
      vertex -7 -7 7.5
      vertex -7 -7.5 7
      vertex 7 -7.5 7
    endloop
  endfacet
  facet normal 0.707107 0 -0.707107
    outer loop
      vertex 7.5 -7 -7
      vertex 7 -7 -7.5
      vertex 7.5 7 -7
    endloop
  endfacet
  facet normal 0.707107 -0.707107 0
    outer loop
      vertex 7.5 -7 -7
      vertex 7.5 -7 7
      vertex 7 -7.5 7
    endloop
  endfacet
  facet normal -1 0 -0
    outer loop
      vertex -7.5 7 7
      vertex -7.5 7 -7
      vertex -7.5 -7 -7
    endloop
  endfacet
  facet normal -0.707107 0 0.707107
    outer loop
      vertex -7.5 7 7
      vertex -7.5 -7 7
      vertex -7 -7 7.5
    endloop
  endfacet
  facet normal 0 -0.707107 -0.707107
    outer loop
      vertex -7 -7 -7.5
      vertex 7 -7 -7.5
      vertex 7 -7.5 -7
    endloop
  endfacet
  facet normal 0 0 -1
    outer loop
      vertex -7 7 -7.5
      vertex 7 -7 -7.5
      vertex -7 -7 -7.5
    endloop
  endfacet
  facet normal -0.57735 -0.57735 -0.57735
    outer loop
      vertex -7 -7 -7.5
      vertex -7 -7.5 -7
      vertex -7.5 -7 -7
    endloop
  endfacet
  facet normal -0 -0.707107 -0.707107
    outer loop
      vertex 7 -7.5 -7
      vertex -7 -7.5 -7
      vertex -7 -7 -7.5
    endloop
  endfacet
  facet normal -0 1 0
    outer loop
      vertex -7 7.5 7
      vertex 7 7.5 7
      vertex 7 7.5 -7
    endloop
  endfacet
  facet normal 0 0.707107 0.707107
    outer loop
      vertex 7 7 7.5
      vertex 7 7.5 7
      vertex -7 7.5 7
    endloop
  endfacet
  facet normal 0 1 0
    outer loop
      vertex 7 7.5 -7
      vertex -7 7.5 -7
      vertex -7 7.5 7
    endloop
  endfacet
  facet normal 0 0.707107 -0.707107
    outer loop
      vertex -7 7 -7.5
      vertex -7 7.5 -7
      vertex 7 7.5 -7
    endloop
  endfacet
  facet normal 0.707107 -0 0.707107
    outer loop
      vertex 7.5 -7 7
      vertex 7.5 7 7
      vertex 7 7 7.5
    endloop
  endfacet
  facet normal 0.707107 -0 0.707107
    outer loop
      vertex 7 -7 7.5
      vertex 7.5 -7 7
      vertex 7 7 7.5
    endloop
  endfacet
  facet normal -0.707107 -0.707107 0
    outer loop
      vertex -7 -7.5 7
      vertex -7.5 -7 7
      vertex -7.5 -7 -7
    endloop
  endfacet
  facet normal -0.57735 -0.57735 0.57735
    outer loop
      vertex -7 -7 7.5
      vertex -7.5 -7 7
      vertex -7 -7.5 7
    endloop
  endfacet
  facet normal 0.707107 0 -0.707107
    outer loop
      vertex 7 -7 -7.5
      vertex 7 7 -7.5
      vertex 7.5 7 -7
    endloop
  endfacet
  facet normal 0 0 -1
    outer loop
      vertex -7 7 -7.5
      vertex 7 7 -7.5
      vertex 7 -7 -7.5
    endloop
  endfacet
  facet normal -0.707107 0.707107 0
    outer loop
      vertex -7 7.5 -7
      vertex -7.5 7 -7
      vertex -7.5 7 7
    endloop
  endfacet
  facet normal -0.57735 0.57735 -0.57735
    outer loop
      vertex -7 7 -7.5
      vertex -7.5 7 -7
      vertex -7 7.5 -7
    endloop
  endfacet
  facet normal 0.707107 0.707107 0
    outer loop
      vertex 7 7.5 7
      vertex 7.5 7 7
      vertex 7.5 7 -7
    endloop
  endfacet
  facet normal 0.57735 0.57735 0.57735
    outer loop
      vertex 7 7 7.5
      vertex 7.5 7 7
      vertex 7 7.5 7
    endloop
  endfacet
endsolid OpenSCAD_Model
