solid OpenSCAD_Model
  facet normal 0.866025 0.5 0
    outer loop
      vertex 11.0539 4.92151 10
      vertex 9.78911 7.1122 0
      vertex 9.78911 7.1122 10
    endloop
  endfacet
  facet normal 0.866025 0.5 0
    outer loop
      vertex 9.78911 7.1122 0
      vertex 11.0539 4.92151 10
      vertex 11.0539 4.92151 0
    endloop
  endfacet
  facet normal 0.743145 0.669131 0
    outer loop
      vertex 9.78911 7.1122 10
      vertex 8.09648 8.99205 0
      vertex 8.09648 8.99205 10
    endloop
  endfacet
  facet normal 0.743145 0.669131 0
    outer loop
      vertex 8.09648 8.99205 0
      vertex 9.78911 7.1122 10
      vertex 9.78911 7.1122 0
    endloop
  endfacet
  facet normal 0.406737 0.913545 -0
    outer loop
      vertex 6.05 10.4789 0
      vertex 3.73911 11.5078 10
      vertex 6.05 10.4789 10
    endloop
  endfacet
  facet normal 0.406737 0.913545 0
    outer loop
      vertex 3.73911 11.5078 10
      vertex 6.05 10.4789 0
      vertex 3.73911 11.5078 0
    endloop
  endfacet
  facet normal -0.406737 0.913545 0
    outer loop
      vertex -3.73911 11.5078 0
      vertex -6.05 10.4789 10
      vertex -3.73911 11.5078 10
    endloop
  endfacet
  facet normal -0.406737 0.913545 0
    outer loop
      vertex -6.05 10.4789 10
      vertex -3.73911 11.5078 0
      vertex -6.05 10.4789 0
    endloop
  endfacet
  facet normal 0.994522 -0.104528 0
    outer loop
      vertex 11.8356 -2.51573 10
      vertex 12.1 0 0
      vertex 12.1 0 10
    endloop
  endfacet
  facet normal 0.994522 -0.104528 0
    outer loop
      vertex 12.1 0 0
      vertex 11.8356 -2.51573 10
      vertex 11.8356 -2.51573 0
    endloop
  endfacet
  facet normal 0.207912 -0.978148 0
    outer loop
      vertex 1.26479 -12.0337 0
      vertex 3.73911 -11.5078 10
      vertex 1.26479 -12.0337 10
    endloop
  endfacet
  facet normal 0.207912 -0.978148 0
    outer loop
      vertex 3.73911 -11.5078 10
      vertex 1.26479 -12.0337 0
      vertex 3.73911 -11.5078 0
    endloop
  endfacet
  facet normal 0.951057 0.309017 0
    outer loop
      vertex 11.8356 2.51573 10
      vertex 11.0539 4.92151 0
      vertex 11.0539 4.92151 10
    endloop
  endfacet
  facet normal 0.951057 0.309017 0
    outer loop
      vertex 11.0539 4.92151 0
      vertex 11.8356 2.51573 10
      vertex 11.8356 2.51573 0
    endloop
  endfacet
  facet normal 0 1 -0
    outer loop
      vertex 1.26479 12.0337 0
      vertex -1.26479 12.0337 10
      vertex 1.26479 12.0337 10
    endloop
  endfacet
  facet normal 0 1 0
    outer loop
      vertex -1.26479 12.0337 10
      vertex 1.26479 12.0337 0
      vertex -1.26479 12.0337 0
    endloop
  endfacet
  facet normal 0.587785 0.809017 -0
    outer loop
      vertex 8.09648 8.99205 0
      vertex 6.05 10.4789 10
      vertex 8.09648 8.99205 10
    endloop
  endfacet
  facet normal 0.587785 0.809017 0
    outer loop
      vertex 6.05 10.4789 10
      vertex 8.09648 8.99205 0
      vertex 6.05 10.4789 0
    endloop
  endfacet
  facet normal -0.994522 0.104528 0
    outer loop
      vertex -12.1 0 0
      vertex -11.8356 2.51573 10
      vertex -11.8356 2.51573 0
    endloop
  endfacet
  facet normal -0.994522 0.104528 0
    outer loop
      vertex -11.8356 2.51573 10
      vertex -12.1 0 0
      vertex -12.1 0 10
    endloop
  endfacet
  facet normal -0.866025 0.5 0
    outer loop
      vertex -11.0539 4.92151 0
      vertex -9.78911 7.1122 10
      vertex -9.78911 7.1122 0
    endloop
  endfacet
  facet normal -0.866025 0.5 0
    outer loop
      vertex -9.78911 7.1122 10
      vertex -11.0539 4.92151 0
      vertex -11.0539 4.92151 10
    endloop
  endfacet
  facet normal -0.587785 0.809017 0
    outer loop
      vertex -6.05 10.4789 0
      vertex -8.09648 8.99205 10
      vertex -6.05 10.4789 10
    endloop
  endfacet
  facet normal -0.587785 0.809017 0
    outer loop
      vertex -8.09648 8.99205 10
      vertex -6.05 10.4789 0
      vertex -8.09648 8.99205 0
    endloop
  endfacet
  facet normal -0.207912 0.978148 0
    outer loop
      vertex -1.26479 12.0337 0
      vertex -3.73911 11.5078 10
      vertex -1.26479 12.0337 10
    endloop
  endfacet
  facet normal -0.207912 0.978148 0
    outer loop
      vertex -3.73911 11.5078 10
      vertex -1.26479 12.0337 0
      vertex -3.73911 11.5078 0
    endloop
  endfacet
  facet normal -0.743145 0.669131 0
    outer loop
      vertex -9.78911 7.1122 0
      vertex -8.09648 8.99205 10
      vertex -8.09648 8.99205 0
    endloop
  endfacet
  facet normal -0.743145 0.669131 0
    outer loop
      vertex -8.09648 8.99205 10
      vertex -9.78911 7.1122 0
      vertex -9.78911 7.1122 10
    endloop
  endfacet
  facet normal 0.994522 0.104528 0
    outer loop
      vertex 12.1 0 10
      vertex 11.8356 2.51573 0
      vertex 11.8356 2.51573 10
    endloop
  endfacet
  facet normal 0.994522 0.104528 0
    outer loop
      vertex 11.8356 2.51573 0
      vertex 12.1 0 10
      vertex 12.1 0 0
    endloop
  endfacet
  facet normal 0.587785 -0.809017 0
    outer loop
      vertex 6.05 -10.4789 0
      vertex 8.09648 -8.99205 10
      vertex 6.05 -10.4789 10
    endloop
  endfacet
  facet normal 0.587785 -0.809017 0
    outer loop
      vertex 8.09648 -8.99205 10
      vertex 6.05 -10.4789 0
      vertex 8.09648 -8.99205 0
    endloop
  endfacet
  facet normal 0.951057 -0.309017 0
    outer loop
      vertex 11.0539 -4.92151 10
      vertex 11.8356 -2.51573 0
      vertex 11.8356 -2.51573 10
    endloop
  endfacet
  facet normal 0.951057 -0.309017 0
    outer loop
      vertex 11.8356 -2.51573 0
      vertex 11.0539 -4.92151 10
      vertex 11.0539 -4.92151 0
    endloop
  endfacet
  facet normal -0.207912 -0.978148 0
    outer loop
      vertex -3.73911 -11.5078 0
      vertex -1.26479 -12.0337 10
      vertex -3.73911 -11.5078 10
    endloop
  endfacet
  facet normal -0.207912 -0.978148 -0
    outer loop
      vertex -1.26479 -12.0337 10
      vertex -3.73911 -11.5078 0
      vertex -1.26479 -12.0337 0
    endloop
  endfacet
  facet normal 0.207912 0.978148 -0
    outer loop
      vertex 3.73911 11.5078 0
      vertex 1.26479 12.0337 10
      vertex 3.73911 11.5078 10
    endloop
  endfacet
  facet normal 0.207912 0.978148 0
    outer loop
      vertex 1.26479 12.0337 10
      vertex 3.73911 11.5078 0
      vertex 1.26479 12.0337 0
    endloop
  endfacet
  facet normal -0.951057 0.309017 0
    outer loop
      vertex -11.8356 2.51573 0
      vertex -11.0539 4.92151 10
      vertex -11.0539 4.92151 0
    endloop
  endfacet
  facet normal -0.951057 0.309017 0
    outer loop
      vertex -11.0539 4.92151 10
      vertex -11.8356 2.51573 0
      vertex -11.8356 2.51573 10
    endloop
  endfacet
  facet normal 0.866025 -0.5 0
    outer loop
      vertex 9.78911 -7.1122 10
      vertex 11.0539 -4.92151 0
      vertex 11.0539 -4.92151 10
    endloop
  endfacet
  facet normal 0.866025 -0.5 0
    outer loop
      vertex 11.0539 -4.92151 0
      vertex 9.78911 -7.1122 10
      vertex 9.78911 -7.1122 0
    endloop
  endfacet
  facet normal -0.406737 -0.913545 0
    outer loop
      vertex -6.05 -10.4789 0
      vertex -3.73911 -11.5078 10
      vertex -6.05 -10.4789 10
    endloop
  endfacet
  facet normal -0.406737 -0.913545 -0
    outer loop
      vertex -3.73911 -11.5078 10
      vertex -6.05 -10.4789 0
      vertex -3.73911 -11.5078 0
    endloop
  endfacet
  facet normal -0.994522 -0.104528 0
    outer loop
      vertex -11.8356 -2.51573 0
      vertex -12.1 0 10
      vertex -12.1 0 0
    endloop
  endfacet
  facet normal -0.994522 -0.104528 0
    outer loop
      vertex -12.1 0 10
      vertex -11.8356 -2.51573 0
      vertex -11.8356 -2.51573 10
    endloop
  endfacet
  facet normal -0.866025 -0.5 0
    outer loop
      vertex -9.78911 -7.1122 0
      vertex -11.0539 -4.92151 10
      vertex -11.0539 -4.92151 0
    endloop
  endfacet
  facet normal -0.866025 -0.5 0
    outer loop
      vertex -11.0539 -4.92151 10
      vertex -9.78911 -7.1122 0
      vertex -9.78911 -7.1122 10
    endloop
  endfacet
  facet normal 0 -1 0
    outer loop
      vertex -1.26479 -12.0337 0
      vertex 1.26479 -12.0337 10
      vertex -1.26479 -12.0337 10
    endloop
  endfacet
  facet normal 0 -1 -0
    outer loop
      vertex 1.26479 -12.0337 10
      vertex -1.26479 -12.0337 0
      vertex 1.26479 -12.0337 0
    endloop
  endfacet
  facet normal -0.587785 -0.809017 0
    outer loop
      vertex -8.09648 -8.99205 0
      vertex -6.05 -10.4789 10
      vertex -8.09648 -8.99205 10
    endloop
  endfacet
  facet normal -0.587785 -0.809017 -0
    outer loop
      vertex -6.05 -10.4789 10
      vertex -8.09648 -8.99205 0
      vertex -6.05 -10.4789 0
    endloop
  endfacet
  facet normal 0 0 -1
    outer loop
      vertex 9.75 0 0
      vertex 12.1 0 0
      vertex 11.8356 -2.51573 0
    endloop
  endfacet
  facet normal 0 0 -1
    outer loop
      vertex 9.53694 -2.02714 0
      vertex 11.8356 -2.51573 0
      vertex 11.0539 -4.92151 0
    endloop
  endfacet
  facet normal 0 0 -1
    outer loop
      vertex 12.1 0 0
      vertex 9.75 0 0
      vertex 11.8356 2.51573 0
    endloop
  endfacet
  facet normal 0 0 -1
    outer loop
      vertex 8.90707 -3.96568 0
      vertex 11.0539 -4.92151 0
      vertex 9.78911 -7.1122 0
    endloop
  endfacet
  facet normal 0 0 -1
    outer loop
      vertex 9.53694 2.02714 0
      vertex 11.8356 2.51573 0
      vertex 9.75 0 0
    endloop
  endfacet
  facet normal -0 0 -1
    outer loop
      vertex 11.8356 2.51573 0
      vertex 9.53694 2.02714 0
      vertex 11.0539 4.92151 0
    endloop
  endfacet
  facet normal 0 0 -1
    outer loop
      vertex 11.8356 -2.51573 0
      vertex 9.53694 -2.02714 0
      vertex 9.75 0 0
    endloop
  endfacet
  facet normal 0 0 -1
    outer loop
      vertex 11.0539 -4.92151 0
      vertex 8.90707 -3.96568 0
      vertex 9.53694 -2.02714 0
    endloop
  endfacet
  facet normal 0 0 -1
    outer loop
      vertex 7.88792 -5.73091 0
      vertex 9.78911 -7.1122 0
      vertex 8.09648 -8.99205 0
    endloop
  endfacet
  facet normal 0 0 -1
    outer loop
      vertex 9.78911 -7.1122 0
      vertex 7.88792 -5.73091 0
      vertex 8.90707 -3.96568 0
    endloop
  endfacet
  facet normal 0 0 -1
    outer loop
      vertex 8.09648 -8.99205 0
      vertex 6.52402 -7.24566 0
      vertex 7.88792 -5.73091 0
    endloop
  endfacet
  facet normal 0 0 -1
    outer loop
      vertex 6.05 -10.4789 0
      vertex 6.52402 -7.24566 0
      vertex 8.09648 -8.99205 0
    endloop
  endfacet
  facet normal 0 0 -1
    outer loop
      vertex 6.05 -10.4789 0
      vertex 4.875 -8.44375 0
      vertex 6.52402 -7.24566 0
    endloop
  endfacet
  facet normal 0 0 -1
    outer loop
      vertex 3.73911 -11.5078 0
      vertex 4.875 -8.44375 0
      vertex 6.05 -10.4789 0
    endloop
  endfacet
  facet normal 0 0 -1
    outer loop
      vertex 3.73911 -11.5078 0
      vertex 3.01292 -9.2728 0
      vertex 4.875 -8.44375 0
    endloop
  endfacet
  facet normal 0 0 -1
    outer loop
      vertex 1.26479 -12.0337 0
      vertex 3.01292 -9.2728 0
      vertex 3.73911 -11.5078 0
    endloop
  endfacet
  facet normal 0 0 -1
    outer loop
      vertex 1.26479 -12.0337 0
      vertex 1.01915 -9.69659 0
      vertex 3.01292 -9.2728 0
    endloop
  endfacet
  facet normal 0 0 -1
    outer loop
      vertex 1.26479 -12.0337 0
      vertex -1.01915 -9.69659 0
      vertex 1.01915 -9.69659 0
    endloop
  endfacet
  facet normal 0 0 -1
    outer loop
      vertex -1.26479 -12.0337 0
      vertex -1.01915 -9.69659 0
      vertex 1.26479 -12.0337 0
    endloop
  endfacet
  facet normal 0 0 -1
    outer loop
      vertex -1.26479 -12.0337 0
      vertex -3.01292 -9.2728 0
      vertex -1.01915 -9.69659 0
    endloop
  endfacet
  facet normal 0 0 -1
    outer loop
      vertex -3.73911 -11.5078 0
      vertex -3.01292 -9.2728 0
      vertex -1.26479 -12.0337 0
    endloop
  endfacet
  facet normal 0 0 -1
    outer loop
      vertex -3.73911 -11.5078 0
      vertex -4.875 -8.44375 0
      vertex -3.01292 -9.2728 0
    endloop
  endfacet
  facet normal 0 0 -1
    outer loop
      vertex -6.05 -10.4789 0
      vertex -4.875 -8.44375 0
      vertex -3.73911 -11.5078 0
    endloop
  endfacet
  facet normal 0 0 -1
    outer loop
      vertex -6.05 -10.4789 0
      vertex -6.52402 -7.24566 0
      vertex -4.875 -8.44375 0
    endloop
  endfacet
  facet normal 0 0 -1
    outer loop
      vertex -8.09648 -8.99205 0
      vertex -6.52402 -7.24566 0
      vertex -6.05 -10.4789 0
    endloop
  endfacet
  facet normal -0 0 -1
    outer loop
      vertex -6.52402 -7.24566 0
      vertex -8.09648 -8.99205 0
      vertex -7.88792 -5.73091 0
    endloop
  endfacet
  facet normal 0 0 -1
    outer loop
      vertex -9.78911 -7.1122 0
      vertex -7.88792 -5.73091 0
      vertex -8.09648 -8.99205 0
    endloop
  endfacet
  facet normal -0 0 -1
    outer loop
      vertex -7.88792 -5.73091 0
      vertex -9.78911 -7.1122 0
      vertex -8.90707 -3.96568 0
    endloop
  endfacet
  facet normal -0 0 -1
    outer loop
      vertex -8.90707 -3.96568 0
      vertex -11.0539 -4.92151 0
      vertex -9.53694 -2.02714 0
    endloop
  endfacet
  facet normal 0 0 -1
    outer loop
      vertex -11.0539 -4.92151 0
      vertex -8.90707 -3.96568 0
      vertex -9.78911 -7.1122 0
    endloop
  endfacet
  facet normal 0 0 -1
    outer loop
      vertex 8.90707 3.96568 0
      vertex 11.0539 4.92151 0
      vertex 9.53694 2.02714 0
    endloop
  endfacet
  facet normal -0 0 -1
    outer loop
      vertex 11.0539 4.92151 0
      vertex 8.90707 3.96568 0
      vertex 9.78911 7.1122 0
    endloop
  endfacet
  facet normal 0 0 -1
    outer loop
      vertex 7.88792 5.73091 0
      vertex 9.78911 7.1122 0
      vertex 8.90707 3.96568 0
    endloop
  endfacet
  facet normal -0 0 -1
    outer loop
      vertex 9.78911 7.1122 0
      vertex 7.88792 5.73091 0
      vertex 8.09648 8.99205 0
    endloop
  endfacet
  facet normal 0 0 -1
    outer loop
      vertex 6.52402 7.24566 0
      vertex 8.09648 8.99205 0
      vertex 7.88792 5.73091 0
    endloop
  endfacet
  facet normal 0 0 -1
    outer loop
      vertex 6.52402 7.24566 0
      vertex 6.05 10.4789 0
      vertex 8.09648 8.99205 0
    endloop
  endfacet
  facet normal 0 0 -1
    outer loop
      vertex 4.875 8.44375 0
      vertex 6.05 10.4789 0
      vertex 6.52402 7.24566 0
    endloop
  endfacet
  facet normal 0 0 -1
    outer loop
      vertex 4.875 8.44375 0
      vertex 3.73911 11.5078 0
      vertex 6.05 10.4789 0
    endloop
  endfacet
  facet normal 0 0 -1
    outer loop
      vertex 3.01292 9.2728 0
      vertex 3.73911 11.5078 0
      vertex 4.875 8.44375 0
    endloop
  endfacet
  facet normal 0 0 -1
    outer loop
      vertex 3.01292 9.2728 0
      vertex 1.26479 12.0337 0
      vertex 3.73911 11.5078 0
    endloop
  endfacet
  facet normal 0 0 -1
    outer loop
      vertex 1.01915 9.69659 0
      vertex 1.26479 12.0337 0
      vertex 3.01292 9.2728 0
    endloop
  endfacet
  facet normal 0 0 -1
    outer loop
      vertex -1.01915 9.69659 0
      vertex 1.26479 12.0337 0
      vertex 1.01915 9.69659 0
    endloop
  endfacet
  facet normal 0 0 -1
    outer loop
      vertex -1.01915 9.69659 0
      vertex -1.26479 12.0337 0
      vertex 1.26479 12.0337 0
    endloop
  endfacet
  facet normal 0 0 -1
    outer loop
      vertex -3.01292 9.2728 0
      vertex -1.26479 12.0337 0
      vertex -1.01915 9.69659 0
    endloop
  endfacet
  facet normal 0 0 -1
    outer loop
      vertex -3.01292 9.2728 0
      vertex -3.73911 11.5078 0
      vertex -1.26479 12.0337 0
    endloop
  endfacet
  facet normal 0 0 -1
    outer loop
      vertex -4.875 8.44375 0
      vertex -3.73911 11.5078 0
      vertex -3.01292 9.2728 0
    endloop
  endfacet
  facet normal 0 0 -1
    outer loop
      vertex -4.875 8.44375 0
      vertex -6.05 10.4789 0
      vertex -3.73911 11.5078 0
    endloop
  endfacet
  facet normal 0 0 -1
    outer loop
      vertex -6.52402 7.24566 0
      vertex -6.05 10.4789 0
      vertex -4.875 8.44375 0
    endloop
  endfacet
  facet normal 0 0 -1
    outer loop
      vertex -8.09648 8.99205 0
      vertex -6.52402 7.24566 0
      vertex -7.88792 5.73091 0
    endloop
  endfacet
  facet normal 0 0 -1
    outer loop
      vertex -6.52402 7.24566 0
      vertex -8.09648 8.99205 0
      vertex -6.05 10.4789 0
    endloop
  endfacet
  facet normal 0 0 -1
    outer loop
      vertex -9.78911 7.1122 0
      vertex -7.88792 5.73091 0
      vertex -8.90707 3.96568 0
    endloop
  endfacet
  facet normal 0 0 -1
    outer loop
      vertex -11.0539 4.92151 0
      vertex -8.90707 3.96568 0
      vertex -9.53694 2.02714 0
    endloop
  endfacet
  facet normal 0 0 -1
    outer loop
      vertex -7.88792 5.73091 0
      vertex -9.78911 7.1122 0
      vertex -8.09648 8.99205 0
    endloop
  endfacet
  facet normal 0 0 -1
    outer loop
      vertex -11.8356 2.51573 0
      vertex -9.53694 2.02714 0
      vertex -9.75 0 0
    endloop
  endfacet
  facet normal 0 0 -1
    outer loop
      vertex -11.8356 -2.51573 0
      vertex -9.53694 -2.02714 0
      vertex -11.0539 -4.92151 0
    endloop
  endfacet
  facet normal -0 0 -1
    outer loop
      vertex -9.53694 -2.02714 0
      vertex -11.8356 -2.51573 0
      vertex -9.75 0 0
    endloop
  endfacet
  facet normal 0 0 -1
    outer loop
      vertex -8.90707 3.96568 0
      vertex -11.0539 4.92151 0
      vertex -9.78911 7.1122 0
    endloop
  endfacet
  facet normal 0 0 -1
    outer loop
      vertex -12.1 0 0
      vertex -9.75 0 0
      vertex -11.8356 -2.51573 0
    endloop
  endfacet
  facet normal 0 0 -1
    outer loop
      vertex -9.53694 2.02714 0
      vertex -11.8356 2.51573 0
      vertex -11.0539 4.92151 0
    endloop
  endfacet
  facet normal 0 0 -1
    outer loop
      vertex -9.75 0 0
      vertex -12.1 0 0
      vertex -11.8356 2.51573 0
    endloop
  endfacet
  facet normal -0.951057 -0.309017 0
    outer loop
      vertex -11.0539 -4.92151 0
      vertex -11.8356 -2.51573 10
      vertex -11.8356 -2.51573 0
    endloop
  endfacet
  facet normal -0.951057 -0.309017 0
    outer loop
      vertex -11.8356 -2.51573 10
      vertex -11.0539 -4.92151 0
      vertex -11.0539 -4.92151 10
    endloop
  endfacet
  facet normal -0.743145 -0.669131 0
    outer loop
      vertex -8.09648 -8.99205 0
      vertex -9.78911 -7.1122 10
      vertex -9.78911 -7.1122 0
    endloop
  endfacet
  facet normal -0.743145 -0.669131 0
    outer loop
      vertex -9.78911 -7.1122 10
      vertex -8.09648 -8.99205 0
      vertex -8.09648 -8.99205 10
    endloop
  endfacet
  facet normal 0.406737 -0.913545 0
    outer loop
      vertex 3.73911 -11.5078 0
      vertex 6.05 -10.4789 10
      vertex 3.73911 -11.5078 10
    endloop
  endfacet
  facet normal 0.406737 -0.913545 0
    outer loop
      vertex 6.05 -10.4789 10
      vertex 3.73911 -11.5078 0
      vertex 6.05 -10.4789 0
    endloop
  endfacet
  facet normal 0.743145 -0.669131 0
    outer loop
      vertex 8.09648 -8.99205 10
      vertex 9.78911 -7.1122 0
      vertex 9.78911 -7.1122 10
    endloop
  endfacet
  facet normal 0.743145 -0.669131 0
    outer loop
      vertex 9.78911 -7.1122 0
      vertex 8.09648 -8.99205 10
      vertex 8.09648 -8.99205 0
    endloop
  endfacet
  facet normal 0.866025 0.5 0
    outer loop
      vertex 15.7587 7.01621 14.975
      vertex 13.9555 10.1393 10
      vertex 13.9555 10.1393 14.975
    endloop
  endfacet
  facet normal 0.866025 0.5 0
    outer loop
      vertex 13.9555 10.1393 10
      vertex 15.7587 7.01621 14.975
      vertex 15.7587 7.01621 10
    endloop
  endfacet
  facet normal 0 1 -0
    outer loop
      vertex 1.80312 17.1555 10
      vertex -1.80312 17.1555 14.975
      vertex 1.80312 17.1555 14.975
    endloop
  endfacet
  facet normal 0 1 0
    outer loop
      vertex -1.80312 17.1555 14.975
      vertex 1.80312 17.1555 10
      vertex -1.80312 17.1555 10
    endloop
  endfacet
  facet normal 0.743145 0.669131 0
    outer loop
      vertex 13.9555 10.1393 14.975
      vertex 11.5425 12.8192 10
      vertex 11.5425 12.8192 14.975
    endloop
  endfacet
  facet normal 0.743145 0.669131 0
    outer loop
      vertex 11.5425 12.8192 10
      vertex 13.9555 10.1393 14.975
      vertex 13.9555 10.1393 10
    endloop
  endfacet
  facet normal 0.207912 0.978148 -0
    outer loop
      vertex 5.33054 16.4057 10
      vertex 1.80312 17.1555 14.975
      vertex 5.33054 16.4057 14.975
    endloop
  endfacet
  facet normal 0.207912 0.978148 0
    outer loop
      vertex 1.80312 17.1555 14.975
      vertex 5.33054 16.4057 10
      vertex 1.80312 17.1555 10
    endloop
  endfacet
  facet normal -0.406736 0.913546 0
    outer loop
      vertex -5.33054 16.4057 10
      vertex -8.625 14.9389 14.975
      vertex -5.33054 16.4057 14.975
    endloop
  endfacet
  facet normal -0.406736 0.913546 0
    outer loop
      vertex -8.625 14.9389 14.975
      vertex -5.33054 16.4057 10
      vertex -8.625 14.9389 10
    endloop
  endfacet
  facet normal -0.866025 0.5 0
    outer loop
      vertex -15.7587 7.01621 10
      vertex -13.9555 10.1393 14.975
      vertex -13.9555 10.1393 10
    endloop
  endfacet
  facet normal -0.866025 0.5 0
    outer loop
      vertex -13.9555 10.1393 14.975
      vertex -15.7587 7.01621 10
      vertex -15.7587 7.01621 14.975
    endloop
  endfacet
  facet normal -0.587785 0.809017 0
    outer loop
      vertex -8.625 14.9389 10
      vertex -11.5425 12.8192 14.975
      vertex -8.625 14.9389 14.975
    endloop
  endfacet
  facet normal -0.587785 0.809017 0
    outer loop
      vertex -11.5425 12.8192 14.975
      vertex -8.625 14.9389 10
      vertex -11.5425 12.8192 10
    endloop
  endfacet
  facet normal 0.994522 -0.104528 0
    outer loop
      vertex 16.873 -3.58648 14.975
      vertex 17.25 0 10
      vertex 17.25 0 14.975
    endloop
  endfacet
  facet normal 0.994522 -0.104528 0
    outer loop
      vertex 17.25 0 10
      vertex 16.873 -3.58648 14.975
      vertex 16.873 -3.58648 10
    endloop
  endfacet
  facet normal 0.207912 -0.978148 0
    outer loop
      vertex 1.80312 -17.1555 10
      vertex 5.33054 -16.4057 14.975
      vertex 1.80312 -17.1555 14.975
    endloop
  endfacet
  facet normal 0.207912 -0.978148 0
    outer loop
      vertex 5.33054 -16.4057 14.975
      vertex 1.80312 -17.1555 10
      vertex 5.33054 -16.4057 10
    endloop
  endfacet
  facet normal 0.951056 0.309017 0
    outer loop
      vertex 16.873 3.58648 14.975
      vertex 15.7587 7.01621 10
      vertex 15.7587 7.01621 14.975
    endloop
  endfacet
  facet normal 0.951056 0.309017 0
    outer loop
      vertex 15.7587 7.01621 10
      vertex 16.873 3.58648 14.975
      vertex 16.873 3.58648 10
    endloop
  endfacet
  facet normal 0.587785 0.809017 -0
    outer loop
      vertex 11.5425 12.8192 10
      vertex 8.625 14.9389 14.975
      vertex 11.5425 12.8192 14.975
    endloop
  endfacet
  facet normal 0.587785 0.809017 0
    outer loop
      vertex 8.625 14.9389 14.975
      vertex 11.5425 12.8192 10
      vertex 8.625 14.9389 10
    endloop
  endfacet
  facet normal 0.406736 0.913546 -0
    outer loop
      vertex 8.625 14.9389 10
      vertex 5.33054 16.4057 14.975
      vertex 8.625 14.9389 14.975
    endloop
  endfacet
  facet normal 0.406736 0.913546 0
    outer loop
      vertex 5.33054 16.4057 14.975
      vertex 8.625 14.9389 10
      vertex 5.33054 16.4057 10
    endloop
  endfacet
  facet normal -0.994522 0.104528 0
    outer loop
      vertex -17.25 0 10
      vertex -16.873 3.58648 14.975
      vertex -16.873 3.58648 10
    endloop
  endfacet
  facet normal -0.994522 0.104528 0
    outer loop
      vertex -16.873 3.58648 14.975
      vertex -17.25 0 10
      vertex -17.25 0 14.975
    endloop
  endfacet
  facet normal -0.743145 0.669131 0
    outer loop
      vertex -13.9555 10.1393 10
      vertex -11.5425 12.8192 14.975
      vertex -11.5425 12.8192 10
    endloop
  endfacet
  facet normal -0.743145 0.669131 0
    outer loop
      vertex -11.5425 12.8192 14.975
      vertex -13.9555 10.1393 10
      vertex -13.9555 10.1393 14.975
    endloop
  endfacet
  facet normal -0.207912 0.978148 0
    outer loop
      vertex -1.80312 17.1555 10
      vertex -5.33054 16.4057 14.975
      vertex -1.80312 17.1555 14.975
    endloop
  endfacet
  facet normal -0.207912 0.978148 0
    outer loop
      vertex -5.33054 16.4057 14.975
      vertex -1.80312 17.1555 10
      vertex -5.33054 16.4057 10
    endloop
  endfacet
  facet normal 0.994522 0.104528 0
    outer loop
      vertex 17.25 0 14.975
      vertex 16.873 3.58648 10
      vertex 16.873 3.58648 14.975
    endloop
  endfacet
  facet normal 0.994522 0.104528 0
    outer loop
      vertex 16.873 3.58648 10
      vertex 17.25 0 14.975
      vertex 17.25 0 10
    endloop
  endfacet
  facet normal -0.207912 -0.978148 0
    outer loop
      vertex -5.33054 -16.4057 10
      vertex -1.80312 -17.1555 14.975
      vertex -5.33054 -16.4057 14.975
    endloop
  endfacet
  facet normal -0.207912 -0.978148 -0
    outer loop
      vertex -1.80312 -17.1555 14.975
      vertex -5.33054 -16.4057 10
      vertex -1.80312 -17.1555 10
    endloop
  endfacet
  facet normal 0.587785 -0.809017 0
    outer loop
      vertex 8.625 -14.9389 10
      vertex 11.5425 -12.8192 14.975
      vertex 8.625 -14.9389 14.975
    endloop
  endfacet
  facet normal 0.587785 -0.809017 0
    outer loop
      vertex 11.5425 -12.8192 14.975
      vertex 8.625 -14.9389 10
      vertex 11.5425 -12.8192 10
    endloop
  endfacet
  facet normal 0 0 1
    outer loop
      vertex 15.7587 7.01621 14.975
      vertex 17.25 0 14.975
      vertex 16.873 3.58648 14.975
    endloop
  endfacet
  facet normal 0 0 1
    outer loop
      vertex 13.9555 10.1393 14.975
      vertex 17.25 0 14.975
      vertex 15.7587 7.01621 14.975
    endloop
  endfacet
  facet normal 0 0 1
    outer loop
      vertex 11.5425 12.8192 14.975
      vertex 17.25 0 14.975
      vertex 13.9555 10.1393 14.975
    endloop
  endfacet
  facet normal 0 0 1
    outer loop
      vertex 17.25 0 14.975
      vertex 11.5425 12.8192 14.975
      vertex 8.625 14.9389 14.975
    endloop
  endfacet
  facet normal 0 0 1
    outer loop
      vertex 17.25 0 14.975
      vertex 15.7587 -7.01621 14.975
      vertex 16.873 -3.58648 14.975
    endloop
  endfacet
  facet normal 0 0 1
    outer loop
      vertex 17.25 0 14.975
      vertex 13.9555 -10.1393 14.975
      vertex 15.7587 -7.01621 14.975
    endloop
  endfacet
  facet normal 0 0 1
    outer loop
      vertex 17.25 0 14.975
      vertex 11.5425 -12.8192 14.975
      vertex 13.9555 -10.1393 14.975
    endloop
  endfacet
  facet normal 0 -0 1
    outer loop
      vertex 11.5425 -12.8192 14.975
      vertex 17.25 0 14.975
      vertex 8.625 -14.9389 14.975
    endloop
  endfacet
  facet normal 0 0 1
    outer loop
      vertex -8.625 -14.9389 14.975
      vertex -13.9555 -10.1393 14.975
      vertex -11.5425 -12.8192 14.975
    endloop
  endfacet
  facet normal 0 0 1
    outer loop
      vertex -8.625 -14.9389 14.975
      vertex -15.7587 -7.01621 14.975
      vertex -13.9555 -10.1393 14.975
    endloop
  endfacet
  facet normal 0 0 1
    outer loop
      vertex -8.625 -14.9389 14.975
      vertex -16.873 -3.58648 14.975
      vertex -15.7587 -7.01621 14.975
    endloop
  endfacet
  facet normal -0 -0 1
    outer loop
      vertex -16.873 -3.58648 14.975
      vertex -8.625 -14.9389 14.975
      vertex -17.25 0 14.975
    endloop
  endfacet
  facet normal 0 0 1
    outer loop
      vertex -13.9555 10.1393 14.975
      vertex -8.625 14.9389 14.975
      vertex -11.5425 12.8192 14.975
    endloop
  endfacet
  facet normal 0 0 1
    outer loop
      vertex -15.7587 7.01621 14.975
      vertex -8.625 14.9389 14.975
      vertex -13.9555 10.1393 14.975
    endloop
  endfacet
  facet normal 0 0 1
    outer loop
      vertex -16.873 3.58648 14.975
      vertex -8.625 14.9389 14.975
      vertex -15.7587 7.01621 14.975
    endloop
  endfacet
  facet normal 0 0 1
    outer loop
      vertex -8.625 14.9389 14.975
      vertex -16.873 3.58648 14.975
      vertex -17.25 0 14.975
    endloop
  endfacet
  facet normal 0 0 1
    outer loop
      vertex 8.625 -14.9389 14.975
      vertex 1.80312 -17.1555 14.975
      vertex 5.33054 -16.4057 14.975
    endloop
  endfacet
  facet normal 0 0 1
    outer loop
      vertex 8.625 -14.9389 14.975
      vertex -1.80312 -17.1555 14.975
      vertex 1.80312 -17.1555 14.975
    endloop
  endfacet
  facet normal 0 0 1
    outer loop
      vertex 8.625 -14.9389 14.975
      vertex -5.33054 -16.4057 14.975
      vertex -1.80312 -17.1555 14.975
    endloop
  endfacet
  facet normal 0 -0 1
    outer loop
      vertex -5.33054 -16.4057 14.975
      vertex 8.625 -14.9389 14.975
      vertex -8.625 -14.9389 14.975
    endloop
  endfacet
  facet normal 0 0 1
    outer loop
      vertex 1.80312 17.1555 14.975
      vertex 8.625 14.9389 14.975
      vertex 5.33054 16.4057 14.975
    endloop
  endfacet
  facet normal -0 0 1
    outer loop
      vertex -1.80312 17.1555 14.975
      vertex 8.625 14.9389 14.975
      vertex 1.80312 17.1555 14.975
    endloop
  endfacet
  facet normal -0 0 1
    outer loop
      vertex -5.33054 16.4057 14.975
      vertex 8.625 14.9389 14.975
      vertex -1.80312 17.1555 14.975
    endloop
  endfacet
  facet normal 0 0 1
    outer loop
      vertex 8.625 14.9389 14.975
      vertex -5.33054 16.4057 14.975
      vertex -8.625 14.9389 14.975
    endloop
  endfacet
  facet normal -0.951056 0.309017 0
    outer loop
      vertex -16.873 3.58648 10
      vertex -15.7587 7.01621 14.975
      vertex -15.7587 7.01621 10
    endloop
  endfacet
  facet normal -0.951056 0.309017 0
    outer loop
      vertex -15.7587 7.01621 14.975
      vertex -16.873 3.58648 10
      vertex -16.873 3.58648 14.975
    endloop
  endfacet
  facet normal 0.951056 -0.309017 0
    outer loop
      vertex 15.7587 -7.01621 14.975
      vertex 16.873 -3.58648 10
      vertex 16.873 -3.58648 14.975
    endloop
  endfacet
  facet normal 0.951056 -0.309017 0
    outer loop
      vertex 16.873 -3.58648 10
      vertex 15.7587 -7.01621 14.975
      vertex 15.7587 -7.01621 10
    endloop
  endfacet
  facet normal 0.866025 -0.5 0
    outer loop
      vertex 13.9555 -10.1393 14.975
      vertex 15.7587 -7.01621 10
      vertex 15.7587 -7.01621 14.975
    endloop
  endfacet
  facet normal 0.866025 -0.5 0
    outer loop
      vertex 15.7587 -7.01621 10
      vertex 13.9555 -10.1393 14.975
      vertex 13.9555 -10.1393 10
    endloop
  endfacet
  facet normal -0.994522 -0.104528 0
    outer loop
      vertex -16.873 -3.58648 10
      vertex -17.25 0 14.975
      vertex -17.25 0 10
    endloop
  endfacet
  facet normal -0.994522 -0.104528 0
    outer loop
      vertex -17.25 0 14.975
      vertex -16.873 -3.58648 10
      vertex -16.873 -3.58648 14.975
    endloop
  endfacet
  facet normal 0.743145 -0.669131 0
    outer loop
      vertex 11.5425 -12.8192 14.975
      vertex 13.9555 -10.1393 10
      vertex 13.9555 -10.1393 14.975
    endloop
  endfacet
  facet normal 0.743145 -0.669131 0
    outer loop
      vertex 13.9555 -10.1393 10
      vertex 11.5425 -12.8192 14.975
      vertex 11.5425 -12.8192 10
    endloop
  endfacet
  facet normal -0.587785 -0.809017 0
    outer loop
      vertex -11.5425 -12.8192 10
      vertex -8.625 -14.9389 14.975
      vertex -11.5425 -12.8192 14.975
    endloop
  endfacet
  facet normal -0.587785 -0.809017 -0
    outer loop
      vertex -8.625 -14.9389 14.975
      vertex -11.5425 -12.8192 10
      vertex -8.625 -14.9389 10
    endloop
  endfacet
  facet normal 0 -1 0
    outer loop
      vertex -1.80312 -17.1555 10
      vertex 1.80312 -17.1555 14.975
      vertex -1.80312 -17.1555 14.975
    endloop
  endfacet
  facet normal 0 -1 -0
    outer loop
      vertex 1.80312 -17.1555 14.975
      vertex -1.80312 -17.1555 10
      vertex 1.80312 -17.1555 10
    endloop
  endfacet
  facet normal 0 0 -1
    outer loop
      vertex 12.1 0 10
      vertex 17.25 0 10
      vertex 16.873 -3.58648 10
    endloop
  endfacet
  facet normal 0 0 -1
    outer loop
      vertex 11.8356 -2.51573 10
      vertex 16.873 -3.58648 10
      vertex 15.7587 -7.01621 10
    endloop
  endfacet
  facet normal 0 0 -1
    outer loop
      vertex 17.25 0 10
      vertex 12.1 0 10
      vertex 16.873 3.58648 10
    endloop
  endfacet
  facet normal 0 0 -1
    outer loop
      vertex 11.0539 -4.92151 10
      vertex 15.7587 -7.01621 10
      vertex 13.9555 -10.1393 10
    endloop
  endfacet
  facet normal 0 0 -1
    outer loop
      vertex 11.8356 2.51573 10
      vertex 16.873 3.58648 10
      vertex 12.1 0 10
    endloop
  endfacet
  facet normal -0 0 -1
    outer loop
      vertex 16.873 3.58648 10
      vertex 11.8356 2.51573 10
      vertex 15.7587 7.01621 10
    endloop
  endfacet
  facet normal 0 0 -1
    outer loop
      vertex 16.873 -3.58648 10
      vertex 11.8356 -2.51573 10
      vertex 12.1 0 10
    endloop
  endfacet
  facet normal 0 0 -1
    outer loop
      vertex 9.78911 -7.1122 10
      vertex 13.9555 -10.1393 10
      vertex 11.5425 -12.8192 10
    endloop
  endfacet
  facet normal 0 0 -1
    outer loop
      vertex 15.7587 -7.01621 10
      vertex 11.0539 -4.92151 10
      vertex 11.8356 -2.51573 10
    endloop
  endfacet
  facet normal 0 0 -1
    outer loop
      vertex 13.9555 -10.1393 10
      vertex 9.78911 -7.1122 10
      vertex 11.0539 -4.92151 10
    endloop
  endfacet
  facet normal 0 0 -1
    outer loop
      vertex 8.09648 -8.99205 10
      vertex 11.5425 -12.8192 10
      vertex 8.625 -14.9389 10
    endloop
  endfacet
  facet normal 0 0 -1
    outer loop
      vertex 11.5425 -12.8192 10
      vertex 8.09648 -8.99205 10
      vertex 9.78911 -7.1122 10
    endloop
  endfacet
  facet normal 0 0 -1
    outer loop
      vertex 8.625 -14.9389 10
      vertex 6.05 -10.4789 10
      vertex 8.09648 -8.99205 10
    endloop
  endfacet
  facet normal 0 0 -1
    outer loop
      vertex 5.33054 -16.4057 10
      vertex 6.05 -10.4789 10
      vertex 8.625 -14.9389 10
    endloop
  endfacet
  facet normal 0 0 -1
    outer loop
      vertex 5.33054 -16.4057 10
      vertex 3.73911 -11.5078 10
      vertex 6.05 -10.4789 10
    endloop
  endfacet
  facet normal 0 0 -1
    outer loop
      vertex 1.80312 -17.1555 10
      vertex 3.73911 -11.5078 10
      vertex 5.33054 -16.4057 10
    endloop
  endfacet
  facet normal 0 0 -1
    outer loop
      vertex 1.80312 -17.1555 10
      vertex 1.26479 -12.0337 10
      vertex 3.73911 -11.5078 10
    endloop
  endfacet
  facet normal 0 0 -1
    outer loop
      vertex 1.80312 -17.1555 10
      vertex -1.26479 -12.0337 10
      vertex 1.26479 -12.0337 10
    endloop
  endfacet
  facet normal 0 0 -1
    outer loop
      vertex -1.80312 -17.1555 10
      vertex -1.26479 -12.0337 10
      vertex 1.80312 -17.1555 10
    endloop
  endfacet
  facet normal 0 0 -1
    outer loop
      vertex -1.80312 -17.1555 10
      vertex -3.73911 -11.5078 10
      vertex -1.26479 -12.0337 10
    endloop
  endfacet
  facet normal 0 0 -1
    outer loop
      vertex -5.33054 -16.4057 10
      vertex -3.73911 -11.5078 10
      vertex -1.80312 -17.1555 10
    endloop
  endfacet
  facet normal 0 0 -1
    outer loop
      vertex -5.33054 -16.4057 10
      vertex -6.05 -10.4789 10
      vertex -3.73911 -11.5078 10
    endloop
  endfacet
  facet normal 0 0 -1
    outer loop
      vertex -8.625 -14.9389 10
      vertex -6.05 -10.4789 10
      vertex -5.33054 -16.4057 10
    endloop
  endfacet
  facet normal -0 0 -1
    outer loop
      vertex -6.05 -10.4789 10
      vertex -8.625 -14.9389 10
      vertex -8.09648 -8.99205 10
    endloop
  endfacet
  facet normal 0 0 -1
    outer loop
      vertex -11.5425 -12.8192 10
      vertex -8.09648 -8.99205 10
      vertex -8.625 -14.9389 10
    endloop
  endfacet
  facet normal -0 0 -1
    outer loop
      vertex -8.09648 -8.99205 10
      vertex -11.5425 -12.8192 10
      vertex -9.78911 -7.1122 10
    endloop
  endfacet
  facet normal 0 0 -1
    outer loop
      vertex -13.9555 -10.1393 10
      vertex -9.78911 -7.1122 10
      vertex -11.5425 -12.8192 10
    endloop
  endfacet
  facet normal -0 0 -1
    outer loop
      vertex -9.78911 -7.1122 10
      vertex -13.9555 -10.1393 10
      vertex -11.0539 -4.92151 10
    endloop
  endfacet
  facet normal 0 0 -1
    outer loop
      vertex -15.7587 -7.01621 10
      vertex -11.0539 -4.92151 10
      vertex -13.9555 -10.1393 10
    endloop
  endfacet
  facet normal -0 0 -1
    outer loop
      vertex -11.0539 -4.92151 10
      vertex -15.7587 -7.01621 10
      vertex -11.8356 -2.51573 10
    endloop
  endfacet
  facet normal 0 0 -1
    outer loop
      vertex 11.0539 4.92151 10
      vertex 15.7587 7.01621 10
      vertex 11.8356 2.51573 10
    endloop
  endfacet
  facet normal -0 0 -1
    outer loop
      vertex 15.7587 7.01621 10
      vertex 11.0539 4.92151 10
      vertex 13.9555 10.1393 10
    endloop
  endfacet
  facet normal 0 0 -1
    outer loop
      vertex 9.78911 7.1122 10
      vertex 13.9555 10.1393 10
      vertex 11.0539 4.92151 10
    endloop
  endfacet
  facet normal -0 0 -1
    outer loop
      vertex 13.9555 10.1393 10
      vertex 9.78911 7.1122 10
      vertex 11.5425 12.8192 10
    endloop
  endfacet
  facet normal 0 0 -1
    outer loop
      vertex 8.09648 8.99205 10
      vertex 11.5425 12.8192 10
      vertex 9.78911 7.1122 10
    endloop
  endfacet
  facet normal -0 0 -1
    outer loop
      vertex 11.5425 12.8192 10
      vertex 8.09648 8.99205 10
      vertex 8.625 14.9389 10
    endloop
  endfacet
  facet normal 0 0 -1
    outer loop
      vertex 6.05 10.4789 10
      vertex 8.625 14.9389 10
      vertex 8.09648 8.99205 10
    endloop
  endfacet
  facet normal 0 0 -1
    outer loop
      vertex 6.05 10.4789 10
      vertex 5.33054 16.4057 10
      vertex 8.625 14.9389 10
    endloop
  endfacet
  facet normal 0 0 -1
    outer loop
      vertex 3.73911 11.5078 10
      vertex 5.33054 16.4057 10
      vertex 6.05 10.4789 10
    endloop
  endfacet
  facet normal 0 0 -1
    outer loop
      vertex 3.73911 11.5078 10
      vertex 1.80312 17.1555 10
      vertex 5.33054 16.4057 10
    endloop
  endfacet
  facet normal 0 0 -1
    outer loop
      vertex 1.26479 12.0337 10
      vertex 1.80312 17.1555 10
      vertex 3.73911 11.5078 10
    endloop
  endfacet
  facet normal 0 0 -1
    outer loop
      vertex -1.26479 12.0337 10
      vertex 1.80312 17.1555 10
      vertex 1.26479 12.0337 10
    endloop
  endfacet
  facet normal 0 0 -1
    outer loop
      vertex -1.26479 12.0337 10
      vertex -1.80312 17.1555 10
      vertex 1.80312 17.1555 10
    endloop
  endfacet
  facet normal 0 0 -1
    outer loop
      vertex -3.73911 11.5078 10
      vertex -1.80312 17.1555 10
      vertex -1.26479 12.0337 10
    endloop
  endfacet
  facet normal 0 0 -1
    outer loop
      vertex -3.73911 11.5078 10
      vertex -5.33054 16.4057 10
      vertex -1.80312 17.1555 10
    endloop
  endfacet
  facet normal 0 0 -1
    outer loop
      vertex -6.05 10.4789 10
      vertex -5.33054 16.4057 10
      vertex -3.73911 11.5078 10
    endloop
  endfacet
  facet normal 0 0 -1
    outer loop
      vertex -8.625 14.9389 10
      vertex -6.05 10.4789 10
      vertex -8.09648 8.99205 10
    endloop
  endfacet
  facet normal 0 0 -1
    outer loop
      vertex -6.05 10.4789 10
      vertex -8.625 14.9389 10
      vertex -5.33054 16.4057 10
    endloop
  endfacet
  facet normal 0 0 -1
    outer loop
      vertex -11.5425 12.8192 10
      vertex -8.09648 8.99205 10
      vertex -9.78911 7.1122 10
    endloop
  endfacet
  facet normal 0 0 -1
    outer loop
      vertex -13.9555 10.1393 10
      vertex -9.78911 7.1122 10
      vertex -11.0539 4.92151 10
    endloop
  endfacet
  facet normal 0 0 -1
    outer loop
      vertex -8.09648 8.99205 10
      vertex -11.5425 12.8192 10
      vertex -8.625 14.9389 10
    endloop
  endfacet
  facet normal 0 0 -1
    outer loop
      vertex -15.7587 7.01621 10
      vertex -11.0539 4.92151 10
      vertex -11.8356 2.51573 10
    endloop
  endfacet
  facet normal 0 0 -1
    outer loop
      vertex -16.873 3.58648 10
      vertex -11.8356 2.51573 10
      vertex -12.1 0 10
    endloop
  endfacet
  facet normal 0 0 -1
    outer loop
      vertex -16.873 -3.58648 10
      vertex -11.8356 -2.51573 10
      vertex -15.7587 -7.01621 10
    endloop
  endfacet
  facet normal 0 0 -1
    outer loop
      vertex -9.78911 7.1122 10
      vertex -13.9555 10.1393 10
      vertex -11.5425 12.8192 10
    endloop
  endfacet
  facet normal -0 0 -1
    outer loop
      vertex -11.8356 -2.51573 10
      vertex -16.873 -3.58648 10
      vertex -12.1 0 10
    endloop
  endfacet
  facet normal 0 0 -1
    outer loop
      vertex -11.0539 4.92151 10
      vertex -15.7587 7.01621 10
      vertex -13.9555 10.1393 10
    endloop
  endfacet
  facet normal 0 0 -1
    outer loop
      vertex -17.25 0 10
      vertex -12.1 0 10
      vertex -16.873 -3.58648 10
    endloop
  endfacet
  facet normal 0 0 -1
    outer loop
      vertex -11.8356 2.51573 10
      vertex -16.873 3.58648 10
      vertex -15.7587 7.01621 10
    endloop
  endfacet
  facet normal 0 0 -1
    outer loop
      vertex -12.1 0 10
      vertex -17.25 0 10
      vertex -16.873 3.58648 10
    endloop
  endfacet
  facet normal -0.951056 -0.309017 0
    outer loop
      vertex -15.7587 -7.01621 10
      vertex -16.873 -3.58648 14.975
      vertex -16.873 -3.58648 10
    endloop
  endfacet
  facet normal -0.951056 -0.309017 0
    outer loop
      vertex -16.873 -3.58648 14.975
      vertex -15.7587 -7.01621 10
      vertex -15.7587 -7.01621 14.975
    endloop
  endfacet
  facet normal -0.743145 -0.669131 0
    outer loop
      vertex -11.5425 -12.8192 10
      vertex -13.9555 -10.1393 14.975
      vertex -13.9555 -10.1393 10
    endloop
  endfacet
  facet normal -0.743145 -0.669131 0
    outer loop
      vertex -13.9555 -10.1393 14.975
      vertex -11.5425 -12.8192 10
      vertex -11.5425 -12.8192 14.975
    endloop
  endfacet
  facet normal -0.866025 -0.5 0
    outer loop
      vertex -13.9555 -10.1393 10
      vertex -15.7587 -7.01621 14.975
      vertex -15.7587 -7.01621 10
    endloop
  endfacet
  facet normal -0.866025 -0.5 0
    outer loop
      vertex -15.7587 -7.01621 14.975
      vertex -13.9555 -10.1393 10
      vertex -13.9555 -10.1393 14.975
    endloop
  endfacet
  facet normal 0.406736 -0.913546 0
    outer loop
      vertex 5.33054 -16.4057 10
      vertex 8.625 -14.9389 14.975
      vertex 5.33054 -16.4057 14.975
    endloop
  endfacet
  facet normal 0.406736 -0.913546 0
    outer loop
      vertex 8.625 -14.9389 14.975
      vertex 5.33054 -16.4057 10
      vertex 8.625 -14.9389 10
    endloop
  endfacet
  facet normal -0.406736 -0.913546 0
    outer loop
      vertex -8.625 -14.9389 10
      vertex -5.33054 -16.4057 14.975
      vertex -8.625 -14.9389 14.975
    endloop
  endfacet
  facet normal -0.406736 -0.913546 -0
    outer loop
      vertex -5.33054 -16.4057 14.975
      vertex -8.625 -14.9389 10
      vertex -5.33054 -16.4057 10
    endloop
  endfacet
  facet normal 0.866025 0.5 0
    outer loop
      vertex 17.25 0 26.625
      vertex 8.625 14.9389 14.975
      vertex 8.625 14.9389 26.625
    endloop
  endfacet
  facet normal 0.866025 0.5 0
    outer loop
      vertex 8.625 14.9389 14.975
      vertex 17.25 0 26.625
      vertex 17.25 0 14.975
    endloop
  endfacet
  facet normal -0.866025 0.5 0
    outer loop
      vertex -17.25 0 14.975
      vertex -8.625 14.9389 26.625
      vertex -8.625 14.9389 14.975
    endloop
  endfacet
  facet normal -0.866025 0.5 0
    outer loop
      vertex -8.625 14.9389 26.625
      vertex -17.25 0 14.975
      vertex -17.25 0 26.625
    endloop
  endfacet
  facet normal 0 1 -0
    outer loop
      vertex 8.625 14.9389 14.975
      vertex -8.625 14.9389 26.625
      vertex 8.625 14.9389 26.625
    endloop
  endfacet
  facet normal 0 1 0
    outer loop
      vertex -8.625 14.9389 26.625
      vertex 8.625 14.9389 14.975
      vertex -8.625 14.9389 14.975
    endloop
  endfacet
  facet normal 0 0 1
    outer loop
      vertex 17.25 0 26.625
      vertex 9.53694 2.02714 26.625
      vertex 9.75 0 26.625
    endloop
  endfacet
  facet normal 0 0 1
    outer loop
      vertex 17.25 0 26.625
      vertex 8.90707 3.96568 26.625
      vertex 9.53694 2.02714 26.625
    endloop
  endfacet
  facet normal 0 0 1
    outer loop
      vertex 8.625 14.9389 26.625
      vertex 8.90707 3.96568 26.625
      vertex 17.25 0 26.625
    endloop
  endfacet
  facet normal 0 0 1
    outer loop
      vertex 8.625 14.9389 26.625
      vertex 7.88792 5.73091 26.625
      vertex 8.90707 3.96568 26.625
    endloop
  endfacet
  facet normal 0 0 1
    outer loop
      vertex 8.625 14.9389 26.625
      vertex 6.52402 7.24566 26.625
      vertex 7.88792 5.73091 26.625
    endloop
  endfacet
  facet normal 0 0 1
    outer loop
      vertex 8.625 14.9389 26.625
      vertex 4.875 8.44375 26.625
      vertex 6.52402 7.24566 26.625
    endloop
  endfacet
  facet normal 0 0 1
    outer loop
      vertex 8.625 14.9389 26.625
      vertex 3.01292 9.2728 26.625
      vertex 4.875 8.44375 26.625
    endloop
  endfacet
  facet normal 0 0 1
    outer loop
      vertex 8.625 14.9389 26.625
      vertex 1.01915 9.69659 26.625
      vertex 3.01292 9.2728 26.625
    endloop
  endfacet
  facet normal 0 0 1
    outer loop
      vertex 8.625 14.9389 26.625
      vertex -1.01915 9.69659 26.625
      vertex 1.01915 9.69659 26.625
    endloop
  endfacet
  facet normal -0 0 1
    outer loop
      vertex -8.625 14.9389 26.625
      vertex -1.01915 9.69659 26.625
      vertex 8.625 14.9389 26.625
    endloop
  endfacet
  facet normal 0 0 1
    outer loop
      vertex -1.01915 9.69659 26.625
      vertex -8.625 14.9389 26.625
      vertex -3.01292 9.2728 26.625
    endloop
  endfacet
  facet normal 0 0 1
    outer loop
      vertex -3.01292 9.2728 26.625
      vertex -8.625 14.9389 26.625
      vertex -4.875 8.44375 26.625
    endloop
  endfacet
  facet normal 0 0 1
    outer loop
      vertex -8.625 14.9389 26.625
      vertex -6.52402 7.24566 26.625
      vertex -4.875 8.44375 26.625
    endloop
  endfacet
  facet normal 0 0 1
    outer loop
      vertex -8.625 14.9389 26.625
      vertex -7.88792 5.73091 26.625
      vertex -6.52402 7.24566 26.625
    endloop
  endfacet
  facet normal 0 0 1
    outer loop
      vertex -8.625 14.9389 26.625
      vertex -8.90707 3.96568 26.625
      vertex -7.88792 5.73091 26.625
    endloop
  endfacet
  facet normal 0 0 1
    outer loop
      vertex -17.25 0 26.625
      vertex -8.90707 3.96568 26.625
      vertex -8.625 14.9389 26.625
    endloop
  endfacet
  facet normal 0 0 1
    outer loop
      vertex -8.90707 3.96568 26.625
      vertex -17.25 0 26.625
      vertex -9.53694 2.02714 26.625
    endloop
  endfacet
  facet normal 0 0 1
    outer loop
      vertex -9.53694 2.02714 26.625
      vertex -17.25 0 26.625
      vertex -9.75 0 26.625
    endloop
  endfacet
  facet normal 0 0 1
    outer loop
      vertex 9.53694 -2.02714 26.625
      vertex 17.25 0 26.625
      vertex 9.75 0 26.625
    endloop
  endfacet
  facet normal 0 0 1
    outer loop
      vertex 8.90707 -3.96568 26.625
      vertex 17.25 0 26.625
      vertex 9.53694 -2.02714 26.625
    endloop
  endfacet
  facet normal -0 0 1
    outer loop
      vertex 8.90707 -3.96568 26.625
      vertex 8.625 -14.9389 26.625
      vertex 17.25 0 26.625
    endloop
  endfacet
  facet normal -0 0 1
    outer loop
      vertex 7.88792 -5.73091 26.625
      vertex 8.625 -14.9389 26.625
      vertex 8.90707 -3.96568 26.625
    endloop
  endfacet
  facet normal -0 0 1
    outer loop
      vertex 6.52402 -7.24566 26.625
      vertex 8.625 -14.9389 26.625
      vertex 7.88792 -5.73091 26.625
    endloop
  endfacet
  facet normal -0 0 1
    outer loop
      vertex 4.875 -8.44375 26.625
      vertex 8.625 -14.9389 26.625
      vertex 6.52402 -7.24566 26.625
    endloop
  endfacet
  facet normal -0 0 1
    outer loop
      vertex 3.01292 -9.2728 26.625
      vertex 8.625 -14.9389 26.625
      vertex 4.875 -8.44375 26.625
    endloop
  endfacet
  facet normal -0 0 1
    outer loop
      vertex 1.01915 -9.69659 26.625
      vertex 8.625 -14.9389 26.625
      vertex 3.01292 -9.2728 26.625
    endloop
  endfacet
  facet normal -0 0 1
    outer loop
      vertex -1.01915 -9.69659 26.625
      vertex 8.625 -14.9389 26.625
      vertex 1.01915 -9.69659 26.625
    endloop
  endfacet
  facet normal 0 0 1
    outer loop
      vertex -8.625 -14.9389 26.625
      vertex -1.01915 -9.69659 26.625
      vertex -3.01292 -9.2728 26.625
    endloop
  endfacet
  facet normal 0 0 1
    outer loop
      vertex -8.625 -14.9389 26.625
      vertex -3.01292 -9.2728 26.625
      vertex -4.875 -8.44375 26.625
    endloop
  endfacet
  facet normal 0 0 1
    outer loop
      vertex -1.01915 -9.69659 26.625
      vertex -8.625 -14.9389 26.625
      vertex 8.625 -14.9389 26.625
    endloop
  endfacet
  facet normal 0 0 1
    outer loop
      vertex -6.52402 -7.24566 26.625
      vertex -8.625 -14.9389 26.625
      vertex -4.875 -8.44375 26.625
    endloop
  endfacet
  facet normal 0 0 1
    outer loop
      vertex -7.88792 -5.73091 26.625
      vertex -8.625 -14.9389 26.625
      vertex -6.52402 -7.24566 26.625
    endloop
  endfacet
  facet normal 0 0 1
    outer loop
      vertex -8.90707 -3.96568 26.625
      vertex -8.625 -14.9389 26.625
      vertex -7.88792 -5.73091 26.625
    endloop
  endfacet
  facet normal 0 0 1
    outer loop
      vertex -17.25 0 26.625
      vertex -8.90707 -3.96568 26.625
      vertex -9.53694 -2.02714 26.625
    endloop
  endfacet
  facet normal -0 0 1
    outer loop
      vertex -17.25 0 26.625
      vertex -9.53694 -2.02714 26.625
      vertex -9.75 0 26.625
    endloop
  endfacet
  facet normal 0 0 1
    outer loop
      vertex -8.90707 -3.96568 26.625
      vertex -17.25 0 26.625
      vertex -8.625 -14.9389 26.625
    endloop
  endfacet
  facet normal -0.866025 -0.5 0
    outer loop
      vertex -8.625 -14.9389 14.975
      vertex -17.25 0 26.625
      vertex -17.25 0 14.975
    endloop
  endfacet
  facet normal -0.866025 -0.5 0
    outer loop
      vertex -17.25 0 26.625
      vertex -8.625 -14.9389 14.975
      vertex -8.625 -14.9389 26.625
    endloop
  endfacet
  facet normal 0.866025 -0.5 0
    outer loop
      vertex 8.625 -14.9389 26.625
      vertex 17.25 0 14.975
      vertex 17.25 0 26.625
    endloop
  endfacet
  facet normal 0.866025 -0.5 0
    outer loop
      vertex 17.25 0 14.975
      vertex 8.625 -14.9389 26.625
      vertex 8.625 -14.9389 14.975
    endloop
  endfacet
  facet normal 0 -1 0
    outer loop
      vertex -8.625 -14.9389 14.975
      vertex 8.625 -14.9389 26.625
      vertex -8.625 -14.9389 26.625
    endloop
  endfacet
  facet normal 0 -1 -0
    outer loop
      vertex 8.625 -14.9389 26.625
      vertex -8.625 -14.9389 14.975
      vertex 8.625 -14.9389 14.975
    endloop
  endfacet
  facet normal -0.866026 -0.5 0
    outer loop
      vertex 8.90707 3.96568 0
      vertex 7.88792 5.73091 26.625
      vertex 7.88792 5.73091 0
    endloop
  endfacet
  facet normal -0.866026 -0.5 0
    outer loop
      vertex 7.88792 5.73091 26.625
      vertex 8.90707 3.96568 0
      vertex 8.90707 3.96568 26.625
    endloop
  endfacet
  facet normal -0.743145 -0.669131 0
    outer loop
      vertex 7.88792 5.73091 0
      vertex 6.52402 7.24566 26.625
      vertex 6.52402 7.24566 0
    endloop
  endfacet
  facet normal -0.743145 -0.669131 0
    outer loop
      vertex 6.52402 7.24566 26.625
      vertex 7.88792 5.73091 0
      vertex 7.88792 5.73091 26.625
    endloop
  endfacet
  facet normal 0.207911 -0.978148 0
    outer loop
      vertex -3.01292 9.2728 0
      vertex -1.01915 9.69659 26.625
      vertex -3.01292 9.2728 26.625
    endloop
  endfacet
  facet normal 0.207911 -0.978148 0
    outer loop
      vertex -1.01915 9.69659 26.625
      vertex -3.01292 9.2728 0
      vertex -1.01915 9.69659 0
    endloop
  endfacet
  facet normal 0.866026 -0.5 0
    outer loop
      vertex -8.90707 3.96568 26.625
      vertex -7.88792 5.73091 0
      vertex -7.88792 5.73091 26.625
    endloop
  endfacet
  facet normal 0.866026 -0.5 0
    outer loop
      vertex -7.88792 5.73091 0
      vertex -8.90707 3.96568 26.625
      vertex -8.90707 3.96568 0
    endloop
  endfacet
  facet normal -0.994522 0.104529 0
    outer loop
      vertex 9.53694 -2.02714 0
      vertex 9.75 0 26.625
      vertex 9.75 0 0
    endloop
  endfacet
  facet normal -0.994522 0.104529 0
    outer loop
      vertex 9.75 0 26.625
      vertex 9.53694 -2.02714 0
      vertex 9.53694 -2.02714 26.625
    endloop
  endfacet
  facet normal -0.587785 -0.809017 0
    outer loop
      vertex 4.875 8.44375 0
      vertex 6.52402 7.24566 26.625
      vertex 4.875 8.44375 26.625
    endloop
  endfacet
  facet normal -0.587785 -0.809017 -0
    outer loop
      vertex 6.52402 7.24566 26.625
      vertex 4.875 8.44375 0
      vertex 6.52402 7.24566 0
    endloop
  endfacet
  facet normal 0 -1 0
    outer loop
      vertex -1.01915 9.69659 0
      vertex 1.01915 9.69659 26.625
      vertex -1.01915 9.69659 26.625
    endloop
  endfacet
  facet normal 0 -1 -0
    outer loop
      vertex 1.01915 9.69659 26.625
      vertex -1.01915 9.69659 0
      vertex 1.01915 9.69659 0
    endloop
  endfacet
  facet normal -0.406736 -0.913546 0
    outer loop
      vertex 3.01292 9.2728 0
      vertex 4.875 8.44375 26.625
      vertex 3.01292 9.2728 26.625
    endloop
  endfacet
  facet normal -0.406736 -0.913546 -0
    outer loop
      vertex 4.875 8.44375 26.625
      vertex 3.01292 9.2728 0
      vertex 4.875 8.44375 0
    endloop
  endfacet
  facet normal 0.994522 -0.104529 0
    outer loop
      vertex -9.75 0 26.625
      vertex -9.53694 2.02714 0
      vertex -9.53694 2.02714 26.625
    endloop
  endfacet
  facet normal 0.994522 -0.104529 0
    outer loop
      vertex -9.53694 2.02714 0
      vertex -9.75 0 26.625
      vertex -9.75 0 0
    endloop
  endfacet
  facet normal 0.743145 -0.669131 0
    outer loop
      vertex -7.88792 5.73091 26.625
      vertex -6.52402 7.24566 0
      vertex -6.52402 7.24566 26.625
    endloop
  endfacet
  facet normal 0.743145 -0.669131 0
    outer loop
      vertex -6.52402 7.24566 0
      vertex -7.88792 5.73091 26.625
      vertex -7.88792 5.73091 0
    endloop
  endfacet
  facet normal 0.406737 -0.913545 0
    outer loop
      vertex -4.875 8.44375 0
      vertex -3.01292 9.2728 26.625
      vertex -4.875 8.44375 26.625
    endloop
  endfacet
  facet normal 0.406737 -0.913545 0
    outer loop
      vertex -3.01292 9.2728 26.625
      vertex -4.875 8.44375 0
      vertex -3.01292 9.2728 0
    endloop
  endfacet
  facet normal 0.587785 -0.809017 0
    outer loop
      vertex -6.52402 7.24566 0
      vertex -4.875 8.44375 26.625
      vertex -6.52402 7.24566 26.625
    endloop
  endfacet
  facet normal 0.587785 -0.809017 0
    outer loop
      vertex -4.875 8.44375 26.625
      vertex -6.52402 7.24566 0
      vertex -4.875 8.44375 0
    endloop
  endfacet
  facet normal -0.994522 -0.104529 0
    outer loop
      vertex 9.75 0 0
      vertex 9.53694 2.02714 26.625
      vertex 9.53694 2.02714 0
    endloop
  endfacet
  facet normal -0.994522 -0.104529 0
    outer loop
      vertex 9.53694 2.02714 26.625
      vertex 9.75 0 0
      vertex 9.75 0 26.625
    endloop
  endfacet
  facet normal 0.207911 0.978148 -0
    outer loop
      vertex -1.01915 -9.69659 0
      vertex -3.01292 -9.2728 26.625
      vertex -1.01915 -9.69659 26.625
    endloop
  endfacet
  facet normal 0.207911 0.978148 0
    outer loop
      vertex -3.01292 -9.2728 26.625
      vertex -1.01915 -9.69659 0
      vertex -3.01292 -9.2728 0
    endloop
  endfacet
  facet normal -0.587785 0.809017 0
    outer loop
      vertex 6.52402 -7.24566 0
      vertex 4.875 -8.44375 26.625
      vertex 6.52402 -7.24566 26.625
    endloop
  endfacet
  facet normal -0.587785 0.809017 0
    outer loop
      vertex 4.875 -8.44375 26.625
      vertex 6.52402 -7.24566 0
      vertex 4.875 -8.44375 0
    endloop
  endfacet
  facet normal -0.951056 -0.309017 0
    outer loop
      vertex 9.53694 2.02714 0
      vertex 8.90707 3.96568 26.625
      vertex 8.90707 3.96568 0
    endloop
  endfacet
  facet normal -0.951056 -0.309017 0
    outer loop
      vertex 8.90707 3.96568 26.625
      vertex 9.53694 2.02714 0
      vertex 9.53694 2.02714 26.625
    endloop
  endfacet
  facet normal -0.207911 -0.978148 0
    outer loop
      vertex 1.01915 9.69659 0
      vertex 3.01292 9.2728 26.625
      vertex 1.01915 9.69659 26.625
    endloop
  endfacet
  facet normal -0.207911 -0.978148 -0
    outer loop
      vertex 3.01292 9.2728 26.625
      vertex 1.01915 9.69659 0
      vertex 3.01292 9.2728 0
    endloop
  endfacet
  facet normal 0.951056 -0.309017 0
    outer loop
      vertex -9.53694 2.02714 26.625
      vertex -8.90707 3.96568 0
      vertex -8.90707 3.96568 26.625
    endloop
  endfacet
  facet normal 0.951056 -0.309017 0
    outer loop
      vertex -8.90707 3.96568 0
      vertex -9.53694 2.02714 26.625
      vertex -9.53694 2.02714 0
    endloop
  endfacet
  facet normal -0.951056 0.309017 0
    outer loop
      vertex 8.90707 -3.96568 0
      vertex 9.53694 -2.02714 26.625
      vertex 9.53694 -2.02714 0
    endloop
  endfacet
  facet normal -0.951056 0.309017 0
    outer loop
      vertex 9.53694 -2.02714 26.625
      vertex 8.90707 -3.96568 0
      vertex 8.90707 -3.96568 26.625
    endloop
  endfacet
  facet normal -0.866026 0.5 0
    outer loop
      vertex 7.88792 -5.73091 0
      vertex 8.90707 -3.96568 26.625
      vertex 8.90707 -3.96568 0
    endloop
  endfacet
  facet normal -0.866026 0.5 0
    outer loop
      vertex 8.90707 -3.96568 26.625
      vertex 7.88792 -5.73091 0
      vertex 7.88792 -5.73091 26.625
    endloop
  endfacet
  facet normal 0.994522 0.104529 0
    outer loop
      vertex -9.53694 -2.02714 26.625
      vertex -9.75 0 0
      vertex -9.75 0 26.625
    endloop
  endfacet
  facet normal 0.994522 0.104529 0
    outer loop
      vertex -9.75 0 0
      vertex -9.53694 -2.02714 26.625
      vertex -9.53694 -2.02714 0
    endloop
  endfacet
  facet normal -0.207911 0.978148 0
    outer loop
      vertex 3.01292 -9.2728 0
      vertex 1.01915 -9.69659 26.625
      vertex 3.01292 -9.2728 26.625
    endloop
  endfacet
  facet normal -0.207911 0.978148 0
    outer loop
      vertex 1.01915 -9.69659 26.625
      vertex 3.01292 -9.2728 0
      vertex 1.01915 -9.69659 0
    endloop
  endfacet
  facet normal -0.406736 0.913546 0
    outer loop
      vertex 4.875 -8.44375 0
      vertex 3.01292 -9.2728 26.625
      vertex 4.875 -8.44375 26.625
    endloop
  endfacet
  facet normal -0.406736 0.913546 0
    outer loop
      vertex 3.01292 -9.2728 26.625
      vertex 4.875 -8.44375 0
      vertex 3.01292 -9.2728 0
    endloop
  endfacet
  facet normal -0.743145 0.669131 0
    outer loop
      vertex 6.52402 -7.24566 0
      vertex 7.88792 -5.73091 26.625
      vertex 7.88792 -5.73091 0
    endloop
  endfacet
  facet normal -0.743145 0.669131 0
    outer loop
      vertex 7.88792 -5.73091 26.625
      vertex 6.52402 -7.24566 0
      vertex 6.52402 -7.24566 26.625
    endloop
  endfacet
  facet normal 0.587785 0.809017 -0
    outer loop
      vertex -4.875 -8.44375 0
      vertex -6.52402 -7.24566 26.625
      vertex -4.875 -8.44375 26.625
    endloop
  endfacet
  facet normal 0.587785 0.809017 0
    outer loop
      vertex -6.52402 -7.24566 26.625
      vertex -4.875 -8.44375 0
      vertex -6.52402 -7.24566 0
    endloop
  endfacet
  facet normal 0 1 -0
    outer loop
      vertex 1.01915 -9.69659 0
      vertex -1.01915 -9.69659 26.625
      vertex 1.01915 -9.69659 26.625
    endloop
  endfacet
  facet normal 0 1 0
    outer loop
      vertex -1.01915 -9.69659 26.625
      vertex 1.01915 -9.69659 0
      vertex -1.01915 -9.69659 0
    endloop
  endfacet
  facet normal 0.951056 0.309017 0
    outer loop
      vertex -8.90707 -3.96568 26.625
      vertex -9.53694 -2.02714 0
      vertex -9.53694 -2.02714 26.625
    endloop
  endfacet
  facet normal 0.951056 0.309017 0
    outer loop
      vertex -9.53694 -2.02714 0
      vertex -8.90707 -3.96568 26.625
      vertex -8.90707 -3.96568 0
    endloop
  endfacet
  facet normal 0.743145 0.669131 0
    outer loop
      vertex -6.52402 -7.24566 26.625
      vertex -7.88792 -5.73091 0
      vertex -7.88792 -5.73091 26.625
    endloop
  endfacet
  facet normal 0.743145 0.669131 0
    outer loop
      vertex -7.88792 -5.73091 0
      vertex -6.52402 -7.24566 26.625
      vertex -6.52402 -7.24566 0
    endloop
  endfacet
  facet normal 0.866026 0.5 0
    outer loop
      vertex -7.88792 -5.73091 26.625
      vertex -8.90707 -3.96568 0
      vertex -8.90707 -3.96568 26.625
    endloop
  endfacet
  facet normal 0.866026 0.5 0
    outer loop
      vertex -8.90707 -3.96568 0
      vertex -7.88792 -5.73091 26.625
      vertex -7.88792 -5.73091 0
    endloop
  endfacet
  facet normal 0.406736 0.913546 -0
    outer loop
      vertex -3.01292 -9.2728 0
      vertex -4.875 -8.44375 26.625
      vertex -3.01292 -9.2728 26.625
    endloop
  endfacet
  facet normal 0.406736 0.913546 0
    outer loop
      vertex -4.875 -8.44375 26.625
      vertex -3.01292 -9.2728 0
      vertex -4.875 -8.44375 0
    endloop
  endfacet
endsolid OpenSCAD_Model
